<svg height="480pt" viewBox="0 0 480 480" width="480pt" xmlns="http://www.w3.org/2000/svg"><path d="m8 88h48v320h-48zm0 0" fill="#cfdfe8"/><path d="m424 88h48v320h-48zm0 0" fill="#cfdfe8"/><path d="m272 288v-56h-64v56c-10.292969 10.769531-16.027344 25.101562-16 40 0 26.507812 21.492188 48 48 48s48-21.492188 48-48c.027344-14.898438-5.707031-29.230469-16-40zm0 0" fill="#844aa8"/><path d="m8 408h464v64h-464zm0 0" fill="#7d8d9c"/><path d="m88 376h304v32h-304zm0 0" fill="#b6c9d1"/><path d="m32 432h16v16h-16zm0 0" fill="#cfdfe8"/><path d="m384 432h64v16h-64zm0 0" fill="#cfdfe8"/><path d="m352 432h16v16h-16zm0 0" fill="#cfdfe8"/><path d="m8 8h464v80h-464zm0 0" fill="#9362f5"/><g fill="#fcf05a"><path d="m208 200c-2.808594 0-5.410156-1.472656-6.855469-3.878906l-24-40 13.710938-8.242188 17.144531 28.570313 17.144531-28.570313 13.710938 8.242188-24 40c-1.445313 2.40625-4.046875 3.878906-6.855469 3.878906zm0 0"/><path d="m200 192h16v40h-16zm0 0"/><path d="m136 216h32v16h-32zm0 0"/><path d="m138.34375 173.660156 11.3125-11.3125 24.003906 24-11.3125 11.316406zm0 0"/><path d="m138.34375 274.34375 24.003906-24 11.3125 11.3125-24 24.003906zm0 0"/><path d="m304 216h32v16h-32zm0 0"/><path d="m298.34375 186.34375 24.003906-24.003906 11.3125 11.316406-24 24zm0 0"/><path d="m298.347656 261.660156 11.3125-11.3125 24.003906 24.003906-11.316406 11.3125zm0 0"/></g><path d="m0 112h184v16h-184zm0 0" fill="#7d8d9c"/><path d="m232 112h248v16h-248zm0 0" fill="#7d8d9c"/><path d="m64 40h208v48h-208zm0 0" fill="#fcf05a"/><path d="m352 56c0 8.835938-7.164062 16-16 16s-16-7.164062-16-16 7.164062-16 16-16 16 7.164062 16 16zm0 0" fill="#dd3e46"/><path d="m416 56c0 8.835938-7.164062 16-16 16s-16-7.164062-16-16 7.164062-16 16-16 16 7.164062 16 16zm0 0" fill="#55b56a"/><path d="m184 88h48v64h-48zm0 0" fill="#844aa8"/><path d="m32 432h16v16h-16zm0 0"/><path d="m384 432h64v16h-64zm0 0"/><path d="m352 432h16v16h-16zm0 0"/><path d="m472 0h-464c-4.417969 0-8 3.582031-8 8v464c0 4.417969 3.582031 8 8 8h464c4.417969 0 8-3.582031 8-8v-464c0-4.417969-3.582031-8-8-8zm-456 96h32v16h-32zm0 32h32v272h-32zm448 336h-448v-48h448zm-72-96h-112.878906c10.792968-10.507812 16.882812-24.933594 16.878906-40-.082031-15.875-5.746094-31.210938-16-43.328125v-52.671875c0-4.417969-3.582031-8-8-8h-56v-29.785156l22.855469-38.09375c.589843-1.308594.972656-2.699219 1.144531-4.121094v-24h176v272h-16v-24c0-4.417969-3.582031-8-8-8zm-174.128906-208-9.871094 16.449219-9.871094-16.449219zm-25.871094-16v-48h32v48zm21.34375 149.953125c1.691406-1.519531 2.65625-3.683594 2.65625-5.953125v-48h48v48c0 2.269531.964844 4.433594 2.65625 5.953125 8.578125 9.261719 13.34375 21.421875 13.34375 34.046875 0 22.089844-17.910156 40-40 40s-40-17.910156-40-40c0-12.625 4.765625-24.785156 13.34375-34.046875zm170.65625 90.046875v16h-288v-16zm-144-272v-16h176v16zm24-32h-192v-32h192zm-88 16v16h-112v-16zm0 32v24c.171875 1.421875.554688 2.8125 1.144531 4.121094l22.855469 38.09375v90.457031c-10.253906 12.117187-15.917969 27.453125-16 43.328125-.003906 15.066406 6.085938 29.492188 16.878906 40h-112.878906c-4.417969 0-8 3.582031-8 8v24h-16v-272zm288 272h-32v-272h32zm0-288h-32v-16h32zm0-32h-184v-40c0-4.417969-3.582031-8-8-8h-208c-4.417969 0-8 3.582031-8 8v40h-40v-64h448zm0 0"/><path d="m136 216h32v16h-32zm0 0"/><path d="m138.34375 173.660156 11.3125-11.3125 24.003906 24-11.3125 11.316406zm0 0"/><path d="m138.34375 274.34375 24.003906-24 11.3125 11.3125-24 24.003906zm0 0"/><path d="m304 216h32v16h-32zm0 0"/><path d="m298.34375 186.34375 24.003906-24.003906 11.3125 11.316406-24 24zm0 0"/><path d="m298.347656 261.660156 11.3125-11.3125 24.003906 24.003906-11.316406 11.3125zm0 0"/><path d="m360 56c0-13.253906-10.746094-24-24-24s-24 10.746094-24 24 10.746094 24 24 24 24-10.746094 24-24zm-24 8c-4.417969 0-8-3.582031-8-8s3.582031-8 8-8 8 3.582031 8 8-3.582031 8-8 8zm0 0"/><path d="m424 56c0-13.253906-10.746094-24-24-24s-24 10.746094-24 24 10.746094 24 24 24 24-10.746094 24-24zm-24 8c-4.417969 0-8-3.582031-8-8s3.582031-8 8-8 8 3.582031 8 8-3.582031 8-8 8zm0 0"/></svg>