<svg height="480pt" viewBox="0 0 480 480" width="480pt" xmlns="http://www.w3.org/2000/svg"><path d="m8 8h464v384h-464zm0 0" fill="#5a6470"/><path d="m120 424h240v48h-240zm0 0" fill="#5a6470"/><path d="m216 392h48v32h-48zm0 0" fill="#aabece"/><path d="m40 40h400v320h-400zm0 0" fill="#d0bafa"/><path d="m144 264h64v64h-64zm0 0" fill="#f9f0a2"/><path d="m208 264h64v64h-64zm0 0" fill="#ffd782"/><path d="m272 264h64v64h-64zm0 0" fill="#f4b442"/><path d="m368 328c-3.445312 0-6.5-2.203125-7.589844-5.46875-1.089844-3.269531.035156-6.863281 2.789063-8.929688l23.464843-17.601562-23.464843-17.601562c-3.535157-2.648438-4.25-7.664063-1.597657-11.199219 2.648438-3.535157 7.664063-4.25 11.199219-1.597657l32 24c2.011719 1.507813 3.199219 3.878907 3.199219 6.398438s-1.1875 4.890625-3.199219 6.398438l-32 24c-1.382812 1.042968-3.070312 1.605468-4.800781 1.601562zm0 0" fill="#f4f4e6"/><path d="m112 328c-1.730469.003906-3.417969-.558594-4.800781-1.601562l-32-24c-2.011719-1.507813-3.199219-3.878907-3.199219-6.398438s1.1875-4.890625 3.199219-6.398438l32-24c3.535156-2.652343 8.550781-1.9375 11.199219 1.597657 2.652343 3.535156 1.9375 8.550781-1.597657 11.199219l-23.464843 17.601562 23.464843 17.601562c2.753907 2.066407 3.878907 5.660157 2.789063 8.929688-1.089844 3.265625-4.144532 5.46875-7.589844 5.46875zm0 0" fill="#f4f4e6"/><g fill="#25313e"><path d="m312 72h104v16h-104zm0 0"/><path d="m312 136h48v16h-48zm0 0"/><path d="m312 104h64v16h-64zm0 0"/><path d="m392 104h16v16h-16zm0 0"/><path d="m120 168h48v16h-48zm0 0"/><path d="m104 136h64v16h-64zm0 0"/><path d="m72 136h16v16h-16zm0 0"/><path d="m64 72h104v16h-104zm0 0"/><path d="m88 104h80v16h-80zm0 0"/></g><path d="m152 224h176v16h-176zm0 0" fill="#9362f5"/><path d="m272 144v-72h-64v72c-10.292969 10.769531-16.027344 25.101562-16 40 0 26.507812 21.492188 48 48 48s48-21.492188 48-48c.027344-14.898438-5.707031-29.230469-16-40zm0 0" fill="#f3f2f0"/><path d="m472 0h-464c-4.417969 0-8 3.582031-8 8v384c0 4.417969 3.582031 8 8 8h200v16h-88c-4.417969 0-8 3.582031-8 8v48c0 4.417969 3.582031 8 8 8h240c4.417969 0 8-3.582031 8-8v-48c0-4.417969-3.582031-8-8-8h-88v-16h200c4.417969 0 8-3.582031 8-8v-384c0-4.417969-3.582031-8-8-8zm-120 432v32h-224v-32zm-128-16v-16h32v16zm240-32h-448v-368h448zm0 0"/><path d="m40 368h400c4.417969 0 8-3.582031 8-8v-320c0-4.417969-3.582031-8-8-8h-400c-4.417969 0-8 3.582031-8 8v320c0 4.417969 3.582031 8 8 8zm8-320h384v304h-384zm0 0"/><path d="m136 256v80h208v-80zm64 64h-48v-48h48zm64 0h-48v-48h48zm64 0h-48v-48h48zm0 0"/><path d="m372.800781 265.601562c-3.535156-2.652343-8.550781-1.9375-11.199219 1.597657-2.652343 3.535156-1.9375 8.550781 1.597657 11.199219l23.464843 17.601562-23.464843 17.601562c-3.535157 2.648438-4.25 7.664063-1.597657 11.199219 2.648438 3.535157 7.664063 4.25 11.199219 1.597657l32-24c2.011719-1.507813 3.199219-3.878907 3.199219-6.398438s-1.1875-4.890625-3.199219-6.398438zm0 0"/><path d="m118.398438 267.199219c-2.648438-3.535157-7.664063-4.25-11.199219-1.597657l-32 24c-2.011719 1.507813-3.199219 3.878907-3.199219 6.398438s1.1875 4.890625 3.199219 6.398438l32 24c3.535156 2.652343 8.550781 1.9375 11.199219-1.597657 2.652343-3.535156 1.9375-8.550781-1.597657-11.199219l-23.464843-17.601562 23.464843-17.601562c3.535157-2.648438 4.25-7.664063 1.597657-11.199219zm0 0"/><path d="m312 72h104v16h-104zm0 0"/><path d="m312 136h48v16h-48zm0 0"/><path d="m312 104h64v16h-64zm0 0"/><path d="m392 104h16v16h-16zm0 0"/><path d="m120 168h48v16h-48zm0 0"/><path d="m104 136h64v16h-64zm0 0"/><path d="m72 136h16v16h-16zm0 0"/><path d="m64 72h104v16h-104zm0 0"/><path d="m88 104h80v16h-80zm0 0"/><path d="m152 224v16h176v-16h-48.886719c10.800781-10.503906 16.890625-24.933594 16.886719-40-.082031-15.875-5.746094-31.210938-16-43.328125v-68.671875c0-4.417969-3.582031-8-8-8h-64c-4.417969 0-8 3.582031-8 8v68.671875c-10.253906 12.117187-15.917969 27.453125-16 43.328125-.003906 15.066406 6.085938 29.496094 16.886719 40zm48-40c0-12.625 4.765625-24.785156 13.34375-34.046875 1.691406-1.519531 2.65625-3.683594 2.65625-5.953125v-64h48v64c0 2.269531.964844 4.433594 2.65625 5.953125 8.578125 9.261719 13.34375 21.421875 13.34375 34.046875 0 22.089844-17.910156 40-40 40s-40-17.910156-40-40zm0 0"/></svg>