<svg height="512" viewBox="0 0 60 60" width="512" xmlns="http://www.w3.org/2000/svg"><g id="011---Laser-Cutting" fill="none"><g id="Icons" transform="translate(1 1)"><path id="Shape" d="m9 51v7h-8c-.55228475 0-1-.4477153-1-1v-6z" fill="#783e22"/><path id="Shape" d="m6 51v7h-5c-.55228475 0-1-.4477153-1-1v-6z" fill="#a0522d"/><path id="Shape" d="m58 51v6c0 .5522847-.4477153 1-1 1h-8v-7z" fill="#783e22"/><path id="Shape" d="m55 51v6c0 .5522847-.4477153 1-1 1h-5v-7z" fill="#a0522d"/><path id="Shape" d="m50 15-6.71 11.5c-.1775523.3075445-.5048889.4978565-.86.5h-6.86c-.3551111-.0021435-.6824477-.1924555-.86-.5l-6.71-11.5z" fill="#707070"/><path id="Shape" d="m47 15-6.71 11.5c-.1775523.3075445-.5048889.4978565-.86.5h-3.86c-.3551111-.0021435-.6824477-.1924555-.86-.5l-6.71-11.5z" fill="#9e9e9e"/><path id="Rectangle-path" d="m28 9h22v6h-22z" fill="#283593"/><path id="Rectangle-path" d="m28 9h19v6h-19z" fill="#3f51b5"/><rect id="Rectangle-path" fill="#0377bc" height="9" rx="1" width="32" x="23"/><rect id="Rectangle-path" fill="#02a9f4" height="9" rx="1" width="29" x="23"/></g><g id="Layer_10" fill="#000"><path id="Shape" d="m57 2c0-1.1045695-.8954305-2-2-2h-30c-1.1045695 0-2 .8954305-2 2v7c0 1.1045695.8954305 2 2 2h3c0 5.32 0 5.12.1 5.43s1.58 2.73 6.75 11.57c.3551046.6150891 1.0097779.9957131 1.72 1h2.43v5c0 .5522847.4477153 1 1 1s1-.4477153 1-1v-5h2.43c.7102221-.0042869 1.3648954-.3849109 1.72-1 5.17-8.85 6.66-11.4 6.75-11.58s.1 0 .1-5.43h3c1.1045695 0 2-.8954305 2-2zm-7 13h-11c-.5522847 0-1 .4477153-1 1s.4477153 1 1 1h10.26l-5.83 10h-6.86l-5.83-10h3.26c.5522847 0 1-.4477153 1-1s-.4477153-1-1-1h-4v-4h20zm5-6h-30v-7h2v2c0 .55228475.4477153 1 1 1s1-.44771525 1-1v-2h2v2c0 .55228475.4477153 1 1 1s1-.44771525 1-1v-2h2v2c0 .55228475.4477153 1 1 1s1-.44771525 1-1v-2h2v2c0 .55228475.4477153 1 1 1s1-.44771525 1-1v-2h2v2c0 .55228475.4477153 1 1 1s1-.44771525 1-1v-2h2v2c0 .55228475.4477153 1 1 1s1-.44771525 1-1v-2h2v2c0 .55228475.4477153 1 1 1s1-.44771525 1-1v-2h2z"/><path id="Shape" d="m41 38c0-.5522847-.4477153-1-1-1s-1 .4477153-1 1v11c0 .5522847.4477153 1 1 1s1-.4477153 1-1z"/><path id="Shape" d="m26 53c-.5522847 0-1 .4477153-1 1s.4477153 1 1 1h9c.5522847 0 1-.4477153 1-1s-.4477153-1-1-1z"/><path id="Shape" d="m44.33 52.5c.38 0-.14.24 8.29-4.63.3108211-.1786328.5027321-.5095174.5034421-.8680127.00071-.3584954-.1898889-.6901375-.5-.87-.3101111-.1798626-.692621-.1806201-1.0034421-.0019873l-7.79 4.5c-.3962127.2245181-.5906881.688381-.4730546 1.1283301.1176334.4399491.5176617.7448538.9730546.7416699z"/><path id="Shape" d="m47.5 41c-.2305237-.133545-.5048063-.1695837-.7620037-.1001217-.2571973.0694621-.4760451.238682-.6079963.4701217l-4.5 7.79c-.1789919.3100165-.1786145.6920638.0009896 1.001726.1796041.3096623.5110351.4996985.8690104.498274.3586848.001424.690659-.1893658.87-.5l4.5-7.79c.133545-.2305237.1695837-.5048063.1001217-.7620037-.0694621-.2571973-.238682-.4760451-.4701217-.6079963z"/><path id="Shape" d="m37.5 50.67c.3579753.0014245.6894063-.1886117.8690104-.498274.1796041-.3096622.1799815-.6917095.0009896-1.001726l-4.5-7.79c-.1786328-.3108211-.5095174-.5027321-.8680127-.5034421s-.6901375.1898889-.87.5-.1806201.692621-.0019873 1.0034421l4.5 7.79c.179341.3106342.5113152.501424.87.5z"/><path id="Shape" d="m36.17 50.63-7.79-4.5c-.3108211-.1786328-.693331-.1778752-1.0034421.0019873s-.50071.5115047-.5.87.192621.6893799.5034421.8680127c8.4 4.85 7.91 4.63 8.29 4.63.4553929.0031839.8554212-.3017208.9730546-.7416699.1176335-.4399491-.0768419-.903812-.4730546-1.1283301z"/><path id="Shape" d="m59 51h-8c-1.1045695 0-2 .8954305-2 2v5h-38v-5c0-1.1045695-.8954305-2-2-2h-8c-.55228475 0-1 .4477153-1 1s.44771525 1 1 1h8v5c0 1.1045695.8954305 2 2 2h38c1.1045695 0 2-.8954305 2-2v-5h8c.5522847 0 1-.4477153 1-1s-.4477153-1-1-1z"/><circle id="Oval" cx="40" cy="54" r="1"/><circle id="Oval" cx="24" cy="45" r="1"/><circle id="Oval" cx="56" cy="45" r="1"/><path id="Shape" d="m16.34 43.75c2.22 2 2.22 4.53 0 6.5-.386084.3708372-.4116464.9799503-.0579907 1.3818318s.9610757.4539702 1.3779907.1181682c3.11-2.77 3.12-6.73 0-9.5-2.22-2-2.22-4.53 0-6.5.2863409-.2306318.4230275-.5997925.3559299-.9612895-.0670975-.3614969-.3271558-.6570177-.6771882-.7695321-.3500324-.1125143-.7335758-.0238727-.9987417.2308216-3.11 2.75-3.12 6.75 0 9.5z"/><path id="Shape" d="m20.75 22.34c-.3647578-.4137044-.9956033-.4539711-1.41-.09-3.11 2.77-3.12 6.73 0 9.5 2.22 2 2.22 4.53 0 6.5-.386084.3708372-.4116464.9799503-.0579907 1.3818318s.9610757.4539702 1.3779907.1181682c3.11-2.77 3.12-6.73 0-9.5-2.22-2-2.22-4.53 0-6.5.4137044-.3647578.4539711-.9956033.09-1.41z"/></g></g></svg>