<?xml version="1.0" encoding="UTF-8" standalone="no"?>
<!-- Created with Inkscape (http://www.inkscape.org/) -->

<svg
   xmlns:dc="http://purl.org/dc/elements/1.1/"
   xmlns:cc="http://creativecommons.org/ns#"
   xmlns:rdf="http://www.w3.org/1999/02/22-rdf-syntax-ns#"
   xmlns:svg="http://www.w3.org/2000/svg"
   xmlns="http://www.w3.org/2000/svg"
   xmlns:sodipodi="http://sodipodi.sourceforge.net/DTD/sodipodi-0.dtd"
   xmlns:inkscape="http://www.inkscape.org/namespaces/inkscape"
   width="65.818275mm"
   height="65.843788mm"
   viewBox="0 0 65.818275 65.843788"
   version="1.1"
   id="svg8"
   sodipodi:docname="logofablab.svg"
   inkscape:version="0.92.3 (2405546, 2018-03-11)">
  <defs
     id="defs2" />
  <sodipodi:namedview
     id="base"
     pagecolor="#ffffff"
     bordercolor="#666666"
     borderopacity="1.0"
     inkscape:pageopacity="0.0"
     inkscape:pageshadow="2"
     inkscape:zoom="4"
     inkscape:cx="140.11198"
     inkscape:cy="98.60201"
     inkscape:document-units="mm"
     inkscape:current-layer="layer1"
     showgrid="false"
     showguides="false"
     inkscape:window-width="1920"
     inkscape:window-height="1017"
     inkscape:window-x="-8"
     inkscape:window-y="-8"
     inkscape:window-maximized="1"
     fit-margin-top="0"
     fit-margin-left="0"
     fit-margin-right="0"
     fit-margin-bottom="0" />
  <metadata
     id="metadata5">
    <rdf:RDF>
      <cc:Work
         rdf:about="">
        <dc:format>image/svg+xml</dc:format>
        <dc:type
           rdf:resource="http://purl.org/dc/dcmitype/StillImage" />
        <dc:title></dc:title>
      </cc:Work>
    </rdf:RDF>
  </metadata>
  <g
     inkscape:label="Camada 1"
     inkscape:groupmode="layer"
     id="layer1"
     transform="translate(-72.703399,-110.28435)">
    <path
       inkscape:connector-curvature="0"
       id="path4560"
       d="m 103.72213,176.00428 c -9.431703,-0.61588 -17.939784,-5.04389 -23.812608,-12.39321 -0.772353,-0.96654 -2.222454,-3.11127 -2.833622,-4.191 -4.61132,-8.14668 -5.524729,-17.9196 -2.504533,-26.797 3.34148,-9.82178 11.262144,-17.57086 21.149764,-20.69161 4.494749,-1.41864 9.398949,-1.86292 14.054669,-1.27323 14.1463,1.79176 25.55544,12.58434 28.14236,26.6215 0.37784,2.05025 0.50329,3.50698 0.50675,5.88434 0.003,2.3422 -0.076,3.37629 -0.41747,5.43624 -1.25155,7.55039 -5.05949,14.35136 -10.87498,19.42271 -4.96455,4.3293 -11.16562,7.0452 -17.86466,7.82424 -1.10507,0.12851 -4.50715,0.22484 -5.54567,0.15702 z m 4.699,-4.35752 c 9.72315,-0.91187 18.39114,-6.88059 22.79723,-15.69803 1.51202,-3.02582 2.50393,-6.48626 2.86376,-9.99066 0.12592,-1.22628 0.12558,-4.23609 -5.9e-4,-5.461 -0.92879,-9.01528 -5.74776,-16.76161 -13.42607,-21.58189 -1.10976,-0.69669 -3.63164,-1.94104 -4.91066,-2.42303 -2.70745,-1.02029 -5.68772,-1.646 -8.52353,-1.78953 -0.87258,-0.0442 -1.10177,-0.0334 -1.07387,0.0503 0.0195,0.0585 5.396,3.29363 11.94776,7.18912 6.55176,3.8955 11.92902,7.12527 11.94948,7.17728 0.0477,0.12137 -0.27839,27.28125 -0.33029,27.50678 -0.0271,0.11762 -3.61412,2.39828 -11.7456,7.46793 -6.43864,4.01423 -11.77912,7.35172 -11.86772,7.41665 -0.42763,0.31338 0.0999,0.34433 2.3201,0.13611 z m -4.0002,-0.0135 c -0.0192,-0.0582 -5.232595,-3.37262 -11.585226,-7.36535 l -11.55024,-7.25953 -0.05146,-2.51947 c -0.06727,-3.2939 -0.09014,-25.20059 -0.02648,-25.36649 0.02699,-0.0703 5.303255,-3.30241 11.725045,-7.18242 6.42179,-3.88001 11.676561,-7.1071 11.677271,-7.17131 10e-4,-0.0955 -0.15663,-0.10599 -0.86655,-0.0577 -3.79412,0.25825 -7.290987,1.20184 -10.689163,2.88437 -3.188917,1.57891 -5.47169,3.24469 -7.958772,5.80768 -3.541945,3.65003 -5.980694,8.03996 -7.1924,12.94685 -0.573784,2.32358 -0.808317,4.33185 -0.808424,6.92242 -1.44e-4,3.41142 0.535651,6.52597 1.658066,9.63832 3.190449,8.8468 10.735203,15.71115 19.76253,17.98029 2.487093,0.62517 6.013583,1.06842 5.905793,0.74231 z m -0.67734,-16.46064 c 0.0118,-6.43271 -0.01,-11.77943 -0.0473,-11.88162 -0.0509,-0.13756 -2.54002,-1.51312 -9.588792,-5.29903 -5.236039,-2.81228 -9.561418,-5.11361 -9.611953,-5.11406 -0.09298,-8.4e-4 -0.20428,10.17021 -0.204398,18.6795 l -5.3e-5,3.82132 0.324682,0.29333 c 0.178576,0.16133 0.812664,0.56962 1.409085,0.90731 0.596421,0.33769 2.417005,1.41028 4.045743,2.38352 1.628737,0.97325 2.989146,1.76954 3.02313,1.76954 0.135364,0 1.451598,-1.0426 1.736635,-1.3756 0.167088,-0.1952 0.403024,-0.55773 0.524302,-0.80561 0.198732,-0.4062 0.21622,-0.51932 0.177102,-1.14558 -0.05927,-0.94883 -0.441668,-2.05116 -1.504012,-4.33554 -1.343046,-2.88799 -1.66328,-4.01172 -1.589542,-5.57785 0.04402,-0.93492 0.183178,-1.37915 0.556867,-1.77766 0.218004,-0.23249 0.79677,-0.55503 1.003009,-0.55897 0.05353,-0.001 0.163015,0.29342 0.243292,0.65431 0.254309,1.14327 0.676935,1.91415 1.559906,2.84528 l 0.470134,0.49578 v 1.10597 1.10598 l 0.465667,0.27878 c 0.256117,0.15333 0.528921,0.28027 0.606233,0.28208 0.173525,0.004 0.194133,-0.24559 0.366109,-4.43512 0.130353,-3.17558 0.124151,-3.26625 -0.223428,-3.26625 -0.309927,0 -0.753834,-0.24907 -1.205881,-0.67659 l -0.455175,-0.43049 -0.296248,0.14127 c -0.488994,0.23319 -1.161318,0.0434 -2.012327,-0.56819 -0.101485,-0.0729 -0.202622,-0.0447 -0.456315,0.12748 -0.422,0.28638 -0.86394,0.28821 -1.426006,0.006 -0.443837,-0.22293 -0.654295,-0.22262 -0.654295,9.6e-4 0,0.27191 -0.319586,0.46833 -0.762,0.46833 h -0.423334 v 0.51451 c 0,0.45247 -0.02847,0.5418 -0.236112,0.74083 -0.129862,0.12448 -0.309317,0.26762 -0.398789,0.31809 -0.14986,0.0845 -0.154604,0.12673 -0.06022,0.53562 0.180272,0.78098 0.08695,1.30325 -0.337249,1.8874 -0.08472,0.11666 -0.0755,0.22521 0.04839,0.56974 0.253662,0.70541 0.264413,1.33153 0.03128,1.82194 l -0.199247,0.41913 0.207372,0.5122 c 0.368968,0.91134 0.337309,1.76395 -0.0872,2.34854 -0.08441,0.11624 -0.067,0.24739 0.09299,0.70058 0.271566,0.76924 0.2267,1.50473 -0.109428,1.79386 -0.127176,0.10939 -0.331375,0.19889 -0.453776,0.19889 -0.307296,0 -0.872735,-0.2876 -1.164803,-0.59245 l -0.243554,-0.25422 h 0.383718 c 0.53666,0 0.707986,-0.20397 0.701015,-0.8346 -0.0055,-0.49554 -0.19347,-0.97075 -0.597056,-1.50925 -0.256466,-0.34219 -0.25375,-0.36548 0.04262,-0.36548 0.134541,0 0.334566,-0.0729 0.4445,-0.16204 0.175644,-0.14238 0.199407,-0.23221 0.195981,-0.74083 -0.0043,-0.63572 -0.174237,-1.06152 -0.631621,-1.58245 -0.300404,-0.34214 -0.31051,-0.39335 -0.07763,-0.39335 0.09671,0 0.287215,-0.11137 0.423333,-0.24748 0.190024,-0.19003 0.247487,-0.32517 0.247487,-0.58203 0,-0.45331 -0.194913,-0.97302 -0.550617,-1.46813 -0.162827,-0.22665 -0.296049,-0.43104 -0.296049,-0.45422 0,-0.0232 0.09714,-0.0421 0.215871,-0.0421 0.491763,0 0.884795,-0.418 0.884795,-0.94101 0,-0.24423 -0.252592,-0.92279 -0.474167,-1.27379 -0.111741,-0.17701 -0.203166,-0.33889 -0.203166,-0.35973 0,-0.0208 0.203115,-0.0169 0.451366,0.009 0.41803,0.0431 0.464927,0.0293 0.635,-0.18687 0.22044,-0.28025 0.236059,-0.68068 0.05087,-1.30427 -0.07302,-0.24588 -0.116791,-0.46302 -0.09727,-0.48254 0.01952,-0.0195 0.203085,0.0405 0.407926,0.13349 0.204843,0.0929 0.456041,0.16982 0.558219,0.17084 0.300736,0.003 0.618445,-0.33688 0.670964,-0.71781 0.08239,-0.59755 0.09072,-0.59967 0.570998,-0.14545 0.541374,0.51201 0.958305,0.66003 1.372108,0.48713 0.271398,-0.1134 0.544485,-0.49498 0.544485,-0.76081 0,-0.21215 0.133243,-0.15217 0.379675,0.17092 0.303699,0.39817 0.836546,0.77754 1.247551,0.88821 0.476873,0.12841 0.864869,-0.0209 1.141823,-0.43941 l 0.221002,-0.33396 0.227842,0.41664 c 0.370919,0.67828 0.58238,0.93156 0.964911,1.15574 0.428631,0.25119 1.0937,0.28451 1.663844,0.0833 0.200533,-0.0708 0.393401,-0.0993 0.428596,-0.0635 0.07293,0.0742 -0.381386,10.75184 -0.460857,10.83131 -0.04071,0.0407 -1.522992,-0.77624 -3.390052,-1.86841 -0.147003,-0.086 -0.154337,-0.1812 -0.105391,-1.36823 l 0.05261,-1.27581 -0.448793,-0.59239 c -0.246836,-0.32581 -0.552595,-0.81162 -0.679465,-1.07957 -0.265611,-0.56098 -0.418306,-0.59283 -0.66192,-0.13808 -0.495516,0.92498 0.177622,2.91162 2.0086,5.92799 0.409866,0.67522 0.855367,1.48929 0.990002,1.80905 0.986499,2.34294 0.976527,5.19335 -0.02369,6.77052 -0.139859,0.22054 -0.254289,0.44865 -0.254289,0.50692 0,0.16965 7.31405,4.47742 7.53533,4.4381 0.11205,-0.0199 0.12953,-1.39984 0.14847,-11.7184 z"
       style="fill:#0080c0;stroke-width:0.08466667" />
    <path
       inkscape:connector-curvature="0"
       id="path4558"
       d="m 103.72213,176.00428 c -9.431703,-0.61588 -17.939784,-5.04389 -23.812608,-12.39321 -0.772353,-0.96654 -2.222454,-3.11127 -2.833622,-4.191 -4.61132,-8.14668 -5.524729,-17.9196 -2.504533,-26.797 3.34148,-9.82178 11.262144,-17.57086 21.149764,-20.69161 4.494749,-1.41864 9.398949,-1.86292 14.054669,-1.27323 14.1463,1.79176 25.55544,12.58434 28.14236,26.6215 0.37784,2.05025 0.50329,3.50698 0.50675,5.88434 0.003,2.3422 -0.076,3.37629 -0.41747,5.43624 -1.25155,7.55039 -5.05949,14.35136 -10.87498,19.42271 -4.96455,4.3293 -11.16562,7.0452 -17.86466,7.82424 -1.10507,0.12851 -4.50715,0.22484 -5.54567,0.15702 z m 4.699,-4.35752 c 9.72315,-0.91187 18.39114,-6.88059 22.79723,-15.69803 1.51202,-3.02582 2.50393,-6.48626 2.86376,-9.99066 0.12592,-1.22628 0.12558,-4.23609 -5.9e-4,-5.461 -0.92879,-9.01528 -5.74776,-16.76161 -13.42607,-21.58189 -1.10976,-0.69669 -3.63164,-1.94104 -4.91066,-2.42303 -2.70745,-1.02029 -5.68772,-1.646 -8.52353,-1.78953 -0.87258,-0.0442 -1.10177,-0.0334 -1.07387,0.0503 0.0195,0.0585 5.396,3.29363 11.94776,7.18912 6.55176,3.8955 11.92902,7.12527 11.94948,7.17728 0.0477,0.12137 -0.27839,27.28125 -0.33029,27.50678 -0.0271,0.11762 -3.61412,2.39828 -11.7456,7.46793 -6.43864,4.01423 -11.77912,7.35172 -11.86772,7.41665 -0.42763,0.31338 0.0999,0.34433 2.3201,0.13611 z m -4.0002,-0.0135 c -0.0192,-0.0582 -5.232595,-3.37262 -11.585226,-7.36535 l -11.55024,-7.25953 -0.05146,-2.51947 c -0.06727,-3.2939 -0.09014,-25.20059 -0.02648,-25.36649 0.02699,-0.0703 5.303255,-3.30241 11.725045,-7.18242 6.42179,-3.88001 11.676561,-7.1071 11.677271,-7.17131 10e-4,-0.0955 -0.15663,-0.10599 -0.86655,-0.0577 -3.79412,0.25825 -7.290987,1.20184 -10.689163,2.88437 -3.188917,1.57891 -5.47169,3.24469 -7.958772,5.80768 -3.541945,3.65003 -5.980694,8.03996 -7.1924,12.94685 -0.573784,2.32358 -0.808317,4.33185 -0.808424,6.92242 -1.44e-4,3.41142 0.535651,6.52597 1.658066,9.63832 3.190449,8.8468 10.735203,15.71115 19.76253,17.98029 2.487093,0.62517 6.013583,1.06842 5.905793,0.74231 z m -0.67734,-16.46064 c 0.0118,-6.43271 -0.01,-11.77943 -0.0473,-11.88162 -0.0509,-0.13756 -2.54002,-1.51312 -9.588792,-5.29903 -5.236039,-2.81228 -9.561418,-5.11361 -9.611953,-5.11406 -0.09298,-8.4e-4 -0.20428,10.17021 -0.204398,18.6795 l -5.3e-5,3.82132 0.324682,0.29333 c 0.178576,0.16133 0.812664,0.56962 1.409085,0.90731 0.596421,0.33769 2.417005,1.41028 4.045743,2.38352 1.628737,0.97325 2.989146,1.76954 3.02313,1.76954 0.135364,0 1.451598,-1.0426 1.736635,-1.3756 0.167088,-0.1952 0.403024,-0.55773 0.524302,-0.80561 0.198732,-0.4062 0.21622,-0.51932 0.177102,-1.14558 -0.05927,-0.94883 -0.441668,-2.05116 -1.504012,-4.33554 -1.343046,-2.88799 -1.66328,-4.01172 -1.589542,-5.57785 0.04402,-0.93492 0.183178,-1.37915 0.556867,-1.77766 0.218004,-0.23249 0.79677,-0.55503 1.003009,-0.55897 0.05353,-0.001 0.163015,0.29342 0.243292,0.65431 0.254309,1.14327 0.676935,1.91415 1.559906,2.84528 l 0.470134,0.49578 v 1.10597 1.10598 l 0.465667,0.27878 c 0.256117,0.15333 0.528921,0.28027 0.606233,0.28208 0.173525,0.004 0.194133,-0.24559 0.366109,-4.43512 0.130353,-3.17558 0.124151,-3.26625 -0.223428,-3.26625 -0.309927,0 -0.753834,-0.24907 -1.205881,-0.67659 l -0.455175,-0.43049 -0.296248,0.14127 c -0.488994,0.23319 -1.161318,0.0434 -2.012327,-0.56819 -0.101485,-0.0729 -0.202622,-0.0447 -0.456315,0.12748 -0.422,0.28638 -0.86394,0.28821 -1.426006,0.006 -0.443837,-0.22293 -0.654295,-0.22262 -0.654295,9.6e-4 0,0.27191 -0.319586,0.46833 -0.762,0.46833 h -0.423334 v 0.51451 c 0,0.45247 -0.02847,0.5418 -0.236112,0.74083 -0.129862,0.12448 -0.309317,0.26762 -0.398789,0.31809 -0.14986,0.0845 -0.154604,0.12673 -0.06022,0.53562 0.180272,0.78098 0.08695,1.30325 -0.337249,1.8874 -0.08472,0.11666 -0.0755,0.22521 0.04839,0.56974 0.253662,0.70541 0.264413,1.33153 0.03128,1.82194 l -0.199247,0.41913 0.207372,0.5122 c 0.368968,0.91134 0.337309,1.76395 -0.0872,2.34854 -0.08441,0.11624 -0.067,0.24739 0.09299,0.70058 0.271566,0.76924 0.2267,1.50473 -0.109428,1.79386 -0.127176,0.10939 -0.331375,0.19889 -0.453776,0.19889 -0.307296,0 -0.872735,-0.2876 -1.164803,-0.59245 l -0.243554,-0.25422 h 0.383718 c 0.53666,0 0.707986,-0.20397 0.701015,-0.8346 -0.0055,-0.49554 -0.19347,-0.97075 -0.597056,-1.50925 -0.256466,-0.34219 -0.25375,-0.36548 0.04262,-0.36548 0.134541,0 0.334566,-0.0729 0.4445,-0.16204 0.175644,-0.14238 0.199407,-0.23221 0.195981,-0.74083 -0.0043,-0.63572 -0.174237,-1.06152 -0.631621,-1.58245 -0.300404,-0.34214 -0.31051,-0.39335 -0.07763,-0.39335 0.09671,0 0.287215,-0.11137 0.423333,-0.24748 0.190024,-0.19003 0.247487,-0.32517 0.247487,-0.58203 0,-0.45331 -0.194913,-0.97302 -0.550617,-1.46813 -0.162827,-0.22665 -0.296049,-0.43104 -0.296049,-0.45422 0,-0.0232 0.09714,-0.0421 0.215871,-0.0421 0.491763,0 0.884795,-0.418 0.884795,-0.94101 0,-0.24423 -0.252592,-0.92279 -0.474167,-1.27379 -0.111741,-0.17701 -0.203166,-0.33889 -0.203166,-0.35973 0,-0.0208 0.203115,-0.0169 0.451366,0.009 0.41803,0.0431 0.464927,0.0293 0.635,-0.18687 0.22044,-0.28025 0.236059,-0.68068 0.05087,-1.30427 -0.07302,-0.24588 -0.116791,-0.46302 -0.09727,-0.48254 0.01952,-0.0195 0.203085,0.0405 0.407926,0.13349 0.204843,0.0929 0.456041,0.16982 0.558219,0.17084 0.300736,0.003 0.618445,-0.33688 0.670964,-0.71781 0.08239,-0.59755 0.09072,-0.59967 0.570998,-0.14545 0.541374,0.51201 0.958305,0.66003 1.372108,0.48713 0.271398,-0.1134 0.544485,-0.49498 0.544485,-0.76081 0,-0.21215 0.133243,-0.15217 0.379675,0.17092 0.303699,0.39817 0.836546,0.77754 1.247551,0.88821 0.476873,0.12841 0.864869,-0.0209 1.141823,-0.43941 l 0.221002,-0.33396 0.227842,0.41664 c 0.370919,0.67828 0.58238,0.93156 0.964911,1.15574 0.428631,0.25119 1.0937,0.28451 1.663844,0.0833 0.200533,-0.0708 0.393401,-0.0993 0.428596,-0.0635 0.07293,0.0742 -0.381386,10.75184 -0.460857,10.83131 -0.04071,0.0407 -1.522992,-0.77624 -3.390052,-1.86841 -0.147003,-0.086 -0.154337,-0.1812 -0.105391,-1.36823 l 0.05261,-1.27581 -0.448793,-0.59239 c -0.246836,-0.32581 -0.552595,-0.81162 -0.679465,-1.07957 -0.265611,-0.56098 -0.418306,-0.59283 -0.66192,-0.13808 -0.495516,0.92498 0.177622,2.91162 2.0086,5.92799 0.409866,0.67522 0.855367,1.48929 0.990002,1.80905 0.986499,2.34294 0.976527,5.19335 -0.02369,6.77052 -0.139859,0.22054 -0.254289,0.44865 -0.254289,0.50692 0,0.16965 7.31405,4.47742 7.53533,4.4381 0.11205,-0.0199 0.12953,-1.39984 0.14847,-11.7184 z m 3.7071,11.22725 c 0.0306,-0.0494 0.13758,-0.12654 0.23783,-0.17134 0.18662,-0.0834 0.33493,-0.16904 1.47389,-0.85112 0.36064,-0.21598 0.77002,-0.45589 0.90972,-0.53314 0.1397,-0.0772 0.5207,-0.30905 0.84667,-0.51512 0.32596,-0.20607 0.74506,-0.45652 0.93133,-0.55657 0.18627,-0.10005 0.59144,-0.34876 0.90039,-0.55269 0.30894,-0.20394 0.59264,-0.37079 0.63044,-0.37079 0.0378,0 0.20413,-0.0896 0.36962,-0.19905 0.42398,-0.28047 2.45903,-1.48308 3.06145,-1.80916 0.92403,-0.50016 1.06082,-0.64112 1.68191,-1.73319 0.16294,-0.2865 0.98539,-1.94535 1.18839,-2.39694 0.4063,-0.90383 0.61562,-1.62847 0.62487,-2.16327 0.008,-0.48207 -0.0324,-0.63964 -0.31172,-1.20487 -0.24786,-0.5016 -0.44014,-0.75226 -0.84104,-1.09639 -1.71618,-1.4732 -2.18554,-2.12398 -2.34945,-3.25757 -0.17116,-1.18375 -0.0674,-2.19956 0.33671,-3.2969 0.29165,-0.79194 1.24828,-2.20774 1.62962,-2.41183 0.21475,-0.11493 0.45213,0.0951 0.52134,0.4612 0.0782,0.41381 0.3636,0.81803 0.66616,0.94352 0.1533,0.0636 0.47778,0.10132 0.73898,0.0859 0.30391,-0.0179 0.53183,0.0152 0.65616,0.0952 0.17764,0.1143 0.1905,0.18248 0.1905,1.00962 0,0.49907 0.0349,0.88705 0.0798,0.88705 0.0439,0 0.20999,-0.0768 0.36908,-0.17067 l 0.28926,-0.17066 0.0537,-0.9935 c 0.0296,-0.54643 0.0739,-1.85075 0.0985,-2.8985 0.0246,-1.04775 0.0641,-2.08445 0.0877,-2.30377 0.0236,-0.21933 0.0181,-0.49732 -0.0121,-0.61776 -0.0486,-0.19359 -0.071,-0.20516 -0.19296,-0.0998 -0.18192,0.15717 -0.91084,0.39662 -1.20736,0.39662 -0.18202,0 -0.2921,0.0832 -0.48942,0.37002 -0.14002,0.20351 -0.4406,0.53726 -0.66796,0.74167 -0.40538,0.36447 -1.24168,0.83564 -1.48322,0.83564 -0.13593,0 -0.46118,0.39613 -0.69006,0.84044 -0.21487,0.41709 -1.0012,1.13611 -1.57967,1.44443 -0.27352,0.14578 -0.49861,0.31045 -0.50019,0.36593 -0.002,0.0555 -0.0765,0.25327 -0.16646,0.43954 -0.09,0.18626 -0.16488,0.37786 -0.16646,0.42578 -0.002,0.0479 -0.24554,0.32762 -0.54214,0.62158 -0.52202,0.51738 -0.53939,0.54849 -0.54321,0.97272 -0.005,0.51905 -0.23023,1.15439 -0.6092,1.71592 -0.2698,0.39977 -0.27244,0.41312 -0.16797,0.84857 0.13402,0.55868 0.0699,1.02719 -0.25137,1.83588 l -0.25422,0.63996 0.17559,0.39696 c 0.22938,0.51856 0.22636,1.18727 -0.009,1.92747 -0.16645,0.5241 -0.17156,0.59331 -0.0534,0.72387 0.19178,0.21191 0.38911,0.82751 0.38911,1.21388 0,0.38428 -0.21104,1.2604 -0.38431,1.59548 -0.1029,0.19898 -0.0975,0.26312 0.0456,0.54387 0.58886,1.155 -0.0247,2.84639 -1.3961,3.84829 -0.55626,0.4064 -0.87447,0.52827 -1.41681,0.54262 -0.39342,0.0104 -0.44975,-0.009 -0.47205,-0.16547 -0.0176,-0.12309 0.073,-0.25096 0.29634,-0.41833 0.85931,-0.64399 1.29532,-1.31347 1.29532,-1.98896 0,-0.2202 -0.0478,-0.44003 -0.10623,-0.48852 -0.0584,-0.0485 -0.33417,-0.12 -0.61275,-0.15891 -0.70599,-0.0986 -0.7092,-0.24383 -0.0194,-0.87595 0.30025,-0.27512 0.59237,-0.62543 0.64918,-0.77847 0.0568,-0.15303 0.1382,-0.3444 0.18088,-0.42526 0.1247,-0.23625 0.0895,-0.75786 -0.0625,-0.92582 -0.10474,-0.11573 -0.26281,-0.15483 -0.62594,-0.15483 -0.37272,0 -0.49826,-0.0324 -0.53925,-0.13924 -0.0529,-0.13791 0.0169,-0.24864 0.47283,-0.74976 0.1271,-0.1397 0.34687,-0.4826 0.48838,-0.762 0.4277,-0.84445 0.32983,-1.16428 -0.42597,-1.39209 -0.27792,-0.0838 -0.4667,-0.19126 -0.48281,-0.27491 -0.0146,-0.0756 0.22077,-0.41186 0.52377,-0.74827 0.61493,-0.68277 0.79271,-0.99902 0.8634,-1.53593 0.0578,-0.43876 -0.0683,-0.64705 -0.47297,-0.78165 -0.15405,-0.0512 -0.32183,-0.16095 -0.37286,-0.24381 -0.0787,-0.12771 -0.0154,-0.22057 0.41521,-0.60972 0.82771,-0.74799 0.90384,-0.83263 1.06751,-1.18695 0.20242,-0.43822 0.20003,-0.73055 -0.009,-1.12089 -0.28601,-0.53364 -0.23464,-0.72166 0.27262,-0.99774 0.98038,-0.53359 1.46737,-1.21019 1.59151,-2.21115 0.0381,-0.30716 0.1106,-0.59982 0.16114,-0.65035 0.0505,-0.0505 0.33471,-0.10734 0.63152,-0.12624 0.46246,-0.0294 0.59867,-0.0789 0.95226,-0.3456 0.50875,-0.38375 0.92927,-1.06649 1.0571,-1.71625 0.11699,-0.59464 0.2243,-0.69926 0.64552,-0.62937 0.52846,0.0877 0.71105,0.06 1.09733,-0.16637 0.61713,-0.36166 1.09998,-0.9866 1.36965,-1.77271 0.12247,-0.35701 0.32176,-0.635 0.45524,-0.635 0.0438,0 0.18077,0.0708 0.30438,0.1573 0.49992,0.3499 1.07582,0.25311 1.57523,-0.26473 0.1451,-0.15046 0.52479,-0.58988 0.84375,-0.97648 0.89681,-1.08701 1.10824,-0.91535 1.02215,0.82991 -0.0264,0.53552 -0.10327,2.97392 -0.1708,5.41867 l -0.12277,4.445 -0.23375,0.1923 c -0.34462,0.28351 -3.56928,1.88203 -3.7966,1.88203 -0.10715,0 -0.22564,-0.0476 -0.26331,-0.10583 -0.0377,-0.0582 -0.0875,-0.63842 -0.11083,-1.28936 l -0.0423,-1.18353 -0.254,-0.0751 c -0.1397,-0.0413 -0.3834,-0.12986 -0.54156,-0.19684 -0.33743,-0.14292 -0.41132,-0.0924 -0.53201,0.36377 -0.17279,0.6531 -0.17042,0.91327 0.0128,1.40275 0.13999,0.37398 0.29038,0.57742 0.66993,0.90623 0.44478,0.38532 1.86228,1.19387 2.09302,1.19387 0.17214,0 0.88218,0.83733 1.05835,1.24808 0.32641,0.76104 0.441,1.57789 0.38909,2.77359 -0.0503,1.15797 -0.12665,1.64069 -0.41853,2.64522 -0.098,0.33728 -0.15604,0.63536 -0.129,0.66241 0.0606,0.0606 0.39073,-0.10704 0.99646,-0.50596 0.25388,-0.16721 0.49697,-0.30401 0.54021,-0.30401 0.0432,0 0.19892,-0.0918 0.34597,-0.20393 0.14706,-0.11216 0.3983,-0.26471 0.55833,-0.33898 0.16002,-0.0743 0.44323,-0.24601 0.62935,-0.38162 0.18611,-0.13562 0.53773,-0.34752 0.78136,-0.47088 0.24364,-0.12336 0.51998,-0.3222 0.61411,-0.44186 0.16974,-0.21579 0.17107,-0.30323 0.16371,-10.72598 -0.004,-5.77963 -0.0327,-10.69174 -0.0635,-10.91581 l -0.0561,-0.40739 -0.55033,0.28946 c -0.84676,0.44538 -2.31839,1.25485 -2.413,1.32727 -0.0466,0.0357 -0.61807,0.34269 -1.27,0.68232 -0.65193,0.33962 -1.31868,0.69413 -1.48167,0.7878 -0.16298,0.0937 -0.48683,0.27016 -0.71966,0.39221 -0.23284,0.12206 -0.59479,0.32024 -0.80434,0.44042 -0.4369,0.25056 -1.25814,0.6938 -2.26243,1.22108 -0.7514,0.3945 -1.19152,0.63599 -2.30957,1.26727 -0.39581,0.22348 -0.98636,0.54506 -1.31233,0.71461 -0.86341,0.4491 -1.94104,1.03107 -2.667,1.44029 -0.34925,0.19687 -0.88265,0.49041 -1.18533,0.65231 -2.01711,1.07888 -2.11715,1.14021 -2.1546,1.32092 -0.083,0.40055 -0.13721,23.00249 -0.0552,23.00249 0.0457,0 0.10809,-0.0405 0.13864,-0.0899 z"
       style="fill:#0080c0;stroke-width:0.08466667;fill-opacity:1" />
    <path
       inkscape:connector-curvature="0"
       id="path4556"
       d="m 103.72213,176.00428 c -9.431703,-0.61588 -17.939784,-5.04389 -23.812608,-12.39321 -0.772353,-0.96654 -2.222454,-3.11127 -2.833622,-4.191 -4.61132,-8.14668 -5.524729,-17.9196 -2.504533,-26.797 3.34148,-9.82178 11.262144,-17.57086 21.149764,-20.69161 4.494749,-1.41864 9.398949,-1.86292 14.054669,-1.27323 14.1463,1.79176 25.55544,12.58434 28.14236,26.6215 0.37784,2.05025 0.50329,3.50698 0.50675,5.88434 0.003,2.3422 -0.076,3.37629 -0.41747,5.43624 -1.25155,7.55039 -5.05949,14.35136 -10.87498,19.42271 -4.96455,4.3293 -11.16562,7.0452 -17.86466,7.82424 -1.10507,0.12851 -4.50715,0.22484 -5.54567,0.15702 z m 4.699,-4.35752 c 9.72315,-0.91187 18.39114,-6.88059 22.79723,-15.69803 1.51202,-3.02582 2.50393,-6.48626 2.86376,-9.99066 0.12592,-1.22628 0.12558,-4.23609 -5.9e-4,-5.461 -0.92879,-9.01528 -5.74776,-16.76161 -13.42607,-21.58189 -1.10976,-0.69669 -3.63164,-1.94104 -4.91066,-2.42303 -2.70745,-1.02029 -5.68772,-1.646 -8.52353,-1.78953 -0.87258,-0.0442 -1.10177,-0.0334 -1.07387,0.0503 0.0195,0.0585 5.396,3.29363 11.94776,7.18912 6.55176,3.8955 11.92902,7.12527 11.94948,7.17728 0.0477,0.12137 -0.27839,27.28125 -0.33029,27.50678 -0.0271,0.11762 -3.61412,2.39828 -11.7456,7.46793 -6.43864,4.01423 -11.77912,7.35172 -11.86772,7.41665 -0.42763,0.31338 0.0999,0.34433 2.3201,0.13611 z m -4.0002,-0.0135 c -0.0192,-0.0582 -5.232595,-3.37262 -11.585226,-7.36535 l -11.55024,-7.25953 -0.05146,-2.51947 c -0.06727,-3.2939 -0.09014,-25.20059 -0.02648,-25.36649 0.02699,-0.0703 5.303255,-3.30241 11.725045,-7.18242 6.42179,-3.88001 11.676561,-7.1071 11.677271,-7.17131 10e-4,-0.0955 -0.15663,-0.10599 -0.86655,-0.0577 -3.79412,0.25825 -7.290987,1.20184 -10.689163,2.88437 -3.188917,1.57891 -5.47169,3.24469 -7.958772,5.80768 -3.541945,3.65003 -5.980694,8.03996 -7.1924,12.94685 -0.573784,2.32358 -0.808317,4.33185 -0.808424,6.92242 -1.44e-4,3.41142 0.535651,6.52597 1.658066,9.63832 3.190449,8.8468 10.735203,15.71115 19.76253,17.98029 2.487093,0.62517 6.013583,1.06842 5.905793,0.74231 z m -0.67734,-16.46064 c 0.0118,-6.43271 -0.01,-11.77943 -0.0473,-11.88162 -0.0509,-0.13756 -2.54002,-1.51312 -9.588792,-5.29903 -5.236039,-2.81228 -9.561418,-5.11361 -9.611953,-5.11406 -0.09298,-8.4e-4 -0.20428,10.17021 -0.204398,18.6795 l -5.3e-5,3.82132 0.324682,0.29333 c 0.178576,0.16133 0.812664,0.56962 1.409085,0.90731 0.596421,0.33769 2.417005,1.41028 4.045743,2.38352 1.628737,0.97325 2.989146,1.76954 3.02313,1.76954 0.135364,0 1.451598,-1.0426 1.736635,-1.3756 0.167088,-0.1952 0.403024,-0.55773 0.524302,-0.80561 0.198732,-0.4062 0.21622,-0.51932 0.177102,-1.14558 -0.05927,-0.94883 -0.441668,-2.05116 -1.504012,-4.33554 -1.343046,-2.88799 -1.66328,-4.01172 -1.589542,-5.57785 0.04402,-0.93492 0.183178,-1.37915 0.556867,-1.77766 0.218004,-0.23249 0.79677,-0.55503 1.003009,-0.55897 0.05353,-0.001 0.163015,0.29342 0.243292,0.65431 0.254309,1.14327 0.676935,1.91415 1.559906,2.84528 l 0.470134,0.49578 v 1.10597 1.10598 l 0.465667,0.27878 c 0.256117,0.15333 0.528921,0.28027 0.606233,0.28208 0.173525,0.004 0.194133,-0.24559 0.366109,-4.43512 0.130353,-3.17558 0.124151,-3.26625 -0.223428,-3.26625 -0.309927,0 -0.753834,-0.24907 -1.205881,-0.67659 l -0.455175,-0.43049 -0.296248,0.14127 c -0.488994,0.23319 -1.161318,0.0434 -2.012327,-0.56819 -0.101485,-0.0729 -0.202622,-0.0447 -0.456315,0.12748 -0.422,0.28638 -0.86394,0.28821 -1.426006,0.006 -0.443837,-0.22293 -0.654295,-0.22262 -0.654295,9.6e-4 0,0.27191 -0.319586,0.46833 -0.762,0.46833 h -0.423334 v 0.51451 c 0,0.45247 -0.02847,0.5418 -0.236112,0.74083 -0.129862,0.12448 -0.309317,0.26762 -0.398789,0.31809 -0.14986,0.0845 -0.154604,0.12673 -0.06022,0.53562 0.180272,0.78098 0.08695,1.30325 -0.337249,1.8874 -0.08472,0.11666 -0.0755,0.22521 0.04839,0.56974 0.253662,0.70541 0.264413,1.33153 0.03128,1.82194 l -0.199247,0.41913 0.207372,0.5122 c 0.368968,0.91134 0.337309,1.76395 -0.0872,2.34854 -0.08441,0.11624 -0.067,0.24739 0.09299,0.70058 0.271566,0.76924 0.2267,1.50473 -0.109428,1.79386 -0.127176,0.10939 -0.331375,0.19889 -0.453776,0.19889 -0.307296,0 -0.872735,-0.2876 -1.164803,-0.59245 l -0.243554,-0.25422 h 0.383718 c 0.53666,0 0.707986,-0.20397 0.701015,-0.8346 -0.0055,-0.49554 -0.19347,-0.97075 -0.597056,-1.50925 -0.256466,-0.34219 -0.25375,-0.36548 0.04262,-0.36548 0.134541,0 0.334566,-0.0729 0.4445,-0.16204 0.175644,-0.14238 0.199407,-0.23221 0.195981,-0.74083 -0.0043,-0.63572 -0.174237,-1.06152 -0.631621,-1.58245 -0.300404,-0.34214 -0.31051,-0.39335 -0.07763,-0.39335 0.09671,0 0.287215,-0.11137 0.423333,-0.24748 0.190024,-0.19003 0.247487,-0.32517 0.247487,-0.58203 0,-0.45331 -0.194913,-0.97302 -0.550617,-1.46813 -0.162827,-0.22665 -0.296049,-0.43104 -0.296049,-0.45422 0,-0.0232 0.09714,-0.0421 0.215871,-0.0421 0.491763,0 0.884795,-0.418 0.884795,-0.94101 0,-0.24423 -0.252592,-0.92279 -0.474167,-1.27379 -0.111741,-0.17701 -0.203166,-0.33889 -0.203166,-0.35973 0,-0.0208 0.203115,-0.0169 0.451366,0.009 0.41803,0.0431 0.464927,0.0293 0.635,-0.18687 0.22044,-0.28025 0.236059,-0.68068 0.05087,-1.30427 -0.07302,-0.24588 -0.116791,-0.46302 -0.09727,-0.48254 0.01952,-0.0195 0.203085,0.0405 0.407926,0.13349 0.204843,0.0929 0.456041,0.16982 0.558219,0.17084 0.300736,0.003 0.618445,-0.33688 0.670964,-0.71781 0.08239,-0.59755 0.09072,-0.59967 0.570998,-0.14545 0.541374,0.51201 0.958305,0.66003 1.372108,0.48713 0.271398,-0.1134 0.544485,-0.49498 0.544485,-0.76081 0,-0.21215 0.133243,-0.15217 0.379675,0.17092 0.303699,0.39817 0.836546,0.77754 1.247551,0.88821 0.476873,0.12841 0.864869,-0.0209 1.141823,-0.43941 l 0.221002,-0.33396 0.227842,0.41664 c 0.370919,0.67828 0.58238,0.93156 0.964911,1.15574 0.428631,0.25119 1.0937,0.28451 1.663844,0.0833 0.200533,-0.0708 0.393401,-0.0993 0.428596,-0.0635 0.07293,0.0742 -0.381386,10.75184 -0.460857,10.83131 -0.04071,0.0407 -1.522992,-0.77624 -3.390052,-1.86841 -0.147003,-0.086 -0.154337,-0.1812 -0.105391,-1.36823 l 0.05261,-1.27581 -0.448793,-0.59239 c -0.246836,-0.32581 -0.552595,-0.81162 -0.679465,-1.07957 -0.265611,-0.56098 -0.418306,-0.59283 -0.66192,-0.13808 -0.495516,0.92498 0.177622,2.91162 2.0086,5.92799 0.409866,0.67522 0.855367,1.48929 0.990002,1.80905 0.986499,2.34294 0.976527,5.19335 -0.02369,6.77052 -0.139859,0.22054 -0.254289,0.44865 -0.254289,0.50692 0,0.16965 7.31405,4.47742 7.53533,4.4381 0.11205,-0.0199 0.12953,-1.39984 0.14847,-11.7184 z m 3.91554,11.41575 c 0.11642,-0.0692 0.34502,-0.21004 0.508,-0.3131 0.16298,-0.10306 0.96308,-0.57942 1.778,-1.05859 3.03552,-1.78486 7.00437,-4.14276 7.58295,-4.50504 l 0.59795,-0.37441 0.73938,-1.36536 c 1.281,-2.36555 1.81736,-3.85661 1.71145,-4.75777 -0.10442,-0.88845 -0.36665,-1.28433 -1.73846,-2.62456 -1.35081,-1.31972 -1.54812,-1.60587 -1.74377,-2.52892 -0.33036,-1.55864 0.0715,-3.23092 1.15201,-4.79393 0.24217,-0.35031 0.49318,-0.63693 0.5578,-0.63693 0.0646,0 0.20712,0.20003 0.31666,0.4445 0.34168,0.76257 0.72096,0.99484 1.62454,0.99484 h 0.54482 v 0.97632 c 0,0.83292 0.0207,0.98427 0.14104,1.03044 0.18763,0.072 1.04429,-0.39169 1.12651,-0.60976 0.0351,-0.0931 0.0887,-1.38854 0.11918,-2.87867 0.0304,-1.49013 0.0758,-3.09033 0.10088,-3.556 0.0601,-1.11701 0.0218,-1.16422 -0.62173,-0.76701 -0.34124,0.21062 -0.66335,0.33442 -0.98298,0.3778 -0.26148,0.0355 -0.48734,0.0804 -0.5019,0.0999 -0.0146,0.0194 -0.1635,0.22618 -0.33096,0.45943 -0.47651,0.66369 -1.02238,1.04276 -2.11615,1.46952 -0.14749,0.0575 -0.30691,0.24185 -0.44512,0.5146 -0.29543,0.58301 -1.08482,1.38481 -1.694,1.72065 -0.50511,0.27846 -0.56968,0.35917 -0.86251,1.07815 -0.0907,0.22257 -0.37171,0.59525 -0.67592,0.89623 l -0.52074,0.51524 v 0.51175 c 0,0.58647 -0.19213,1.09107 -0.65608,1.7231 l -0.30257,0.41218 0.14535,0.4611 c 0.17163,0.54448 0.0916,1.12425 -0.26176,1.89608 -0.25602,0.55921 -0.26108,0.68979 -0.0425,1.09754 0.24015,0.44806 0.22338,1.12837 -0.0454,1.84251 -0.20856,0.5541 -0.2104,0.57669 -0.0635,0.78297 0.56613,0.79503 0.57794,1.30694 0.0613,2.65565 -0.14737,0.38468 -0.14681,0.39531 0.037,0.69266 0.53406,0.86413 0.14816,2.20673 -0.93419,3.25024 -0.51585,0.49733 -1.51044,0.97257 -1.51044,0.72171 0,-0.0369 0.17449,-0.23689 0.38776,-0.4445 0.72054,-0.70141 1.07633,-1.56737 0.88373,-2.15094 -0.0977,-0.2961 -0.42974,-0.55485 -0.71196,-0.55485 -0.26367,0 -0.21259,-0.17876 0.19599,-0.6858 0.89677,-1.11287 0.91336,-2.29951 0.0349,-2.49285 -0.46451,-0.10223 -0.46513,-0.10432 -0.15173,-0.51489 0.50144,-0.65692 0.66257,-1.03881 0.6684,-1.58412 0.005,-0.43952 -0.0209,-0.51655 -0.23227,-0.6985 -0.13066,-0.11248 -0.32843,-0.20451 -0.43951,-0.20451 -0.34628,0 -0.32309,-0.1574 0.0907,-0.61571 0.50005,-0.55385 0.88253,-1.33905 0.88262,-1.81196 7e-5,-0.37083 -0.31827,-0.87433 -0.5528,-0.87433 -0.29438,0 -0.18195,-0.2285 0.37261,-0.75729 0.90513,-0.86306 1.15278,-1.60409 0.77292,-2.31282 -0.0931,-0.17377 -0.16933,-0.35354 -0.16933,-0.39949 0,-0.046 0.18097,-0.17605 0.40217,-0.28912 0.22119,-0.11306 0.56148,-0.34304 0.75621,-0.51107 0.41864,-0.36124 0.87314,-1.21811 0.87477,-1.64923 0.002,-0.58793 0.0663,-0.68489 0.45322,-0.68581 1.00012,-0.002 1.97626,-0.94841 2.35786,-2.28517 l 0.10877,-0.381 0.508,-0.003 c 1.0098,-0.006 1.97438,-0.82919 2.45406,-2.09548 0.0844,-0.22271 0.18621,-0.42521 0.22632,-0.45 0.0401,-0.0248 0.17294,0.0336 0.29519,0.12977 0.26965,0.2121 0.77817,0.23016 1.14465,0.0406 0.36085,-0.1866 0.93411,-0.73002 1.43758,-1.36273 0.23418,-0.2943 0.46673,-0.53509 0.51679,-0.53509 0.0959,0 0.0634,2.37145 -0.1089,7.95867 -0.0769,2.49276 -0.10507,2.85372 -0.23259,2.97989 -0.24783,0.24519 -3.49242,1.86308 -3.63024,1.81019 -0.11094,-0.0426 -0.12054,-0.21223 -0.0688,-1.21586 0.0679,-1.31807 0.0858,-1.27398 -0.58474,-1.44323 -0.22736,-0.0574 -0.50602,-0.17721 -0.61924,-0.26627 -0.27964,-0.21997 -0.39946,-0.15067 -0.6291,0.36383 -0.25235,0.56539 -0.2756,1.56393 -0.0463,1.98867 0.38638,0.71574 1.1612,1.33297 2.4503,1.95194 0.87511,0.42019 1.20747,0.80269 1.51812,1.74717 0.17083,0.51938 0.19433,0.75494 0.18998,1.905 -0.005,1.35317 -0.13815,2.15973 -0.55731,3.37876 -0.1898,0.55199 -0.1991,0.76991 -0.0329,0.76991 0.0685,0 0.89717,-0.46142 1.8415,-1.02539 0.94434,-0.56396 2.0692,-1.23282 2.4997,-1.48634 0.52167,-0.30723 0.79767,-0.52294 0.82754,-0.64678 0.0246,-0.1022 0.0344,-5.1764 0.0216,-11.276 -0.0214,-10.24309 -0.0339,-11.09224 -0.16339,-11.11717 -0.1299,-0.025 -1.54155,0.7156 -6.42148,3.369 -1.04775,0.5697 -2.64795,1.43663 -3.556,1.9265 -0.90805,0.48988 -2.7178,1.4709 -4.02166,2.18004 -1.30387,0.70914 -3.05647,1.66061 -3.89467,2.11437 -0.8382,0.45377 -1.58115,0.87935 -1.651,0.94574 -0.11147,0.10594 -0.12984,1.54546 -0.1502,11.76941 -0.0166,8.36012 0.003,11.6803 0.0697,11.76063 0.0977,0.11777 0.23923,0.0894 0.58851,-0.11807 z"
       style="fill:#c63437;stroke-width:0.08466667" />
    <path
       inkscape:connector-curvature="0"
       id="path4554"
       d="m 103.72213,176.00428 c -9.431703,-0.61588 -17.939784,-5.04389 -23.812608,-12.39321 -0.772353,-0.96654 -2.222454,-3.11127 -2.833622,-4.191 -4.61132,-8.14668 -5.524729,-17.9196 -2.504533,-26.797 3.34148,-9.82178 11.262144,-17.57086 21.149764,-20.69161 4.494749,-1.41864 9.398949,-1.86292 14.054669,-1.27323 14.1463,1.79176 25.55544,12.58434 28.14236,26.6215 0.37784,2.05025 0.50329,3.50698 0.50675,5.88434 0.003,2.3422 -0.076,3.37629 -0.41747,5.43624 -1.25155,7.55039 -5.05949,14.35136 -10.87498,19.42271 -4.96455,4.3293 -11.16562,7.0452 -17.86466,7.82424 -1.10507,0.12851 -4.50715,0.22484 -5.54567,0.15702 z m 4.699,-4.35752 c 9.72315,-0.91187 18.39114,-6.88059 22.79723,-15.69803 1.51202,-3.02582 2.50393,-6.48626 2.86376,-9.99066 0.12592,-1.22628 0.12558,-4.23609 -5.9e-4,-5.461 -0.92879,-9.01528 -5.74776,-16.76161 -13.42607,-21.58189 -1.10976,-0.69669 -3.63164,-1.94104 -4.91066,-2.42303 -2.70745,-1.02029 -5.68772,-1.646 -8.52353,-1.78953 -0.87258,-0.0442 -1.10177,-0.0334 -1.07387,0.0503 0.0195,0.0585 5.396,3.29363 11.94776,7.18912 6.55176,3.8955 11.92902,7.12527 11.94948,7.17728 0.0477,0.12137 -0.27839,27.28125 -0.33029,27.50678 -0.0271,0.11762 -3.61412,2.39828 -11.7456,7.46793 -6.43864,4.01423 -11.77912,7.35172 -11.86772,7.41665 -0.42763,0.31338 0.0999,0.34433 2.3201,0.13611 z m -4.0002,-0.0135 c -0.0192,-0.0582 -5.232595,-3.37262 -11.585226,-7.36535 l -11.55024,-7.25953 -0.05146,-2.51947 c -0.06727,-3.2939 -0.09014,-25.20059 -0.02648,-25.36649 0.02699,-0.0703 5.303255,-3.30241 11.725045,-7.18242 6.42179,-3.88001 11.676561,-7.1071 11.677271,-7.17131 10e-4,-0.0955 -0.15663,-0.10599 -0.86655,-0.0577 -3.79412,0.25825 -7.290987,1.20184 -10.689163,2.88437 -3.188917,1.57891 -5.47169,3.24469 -7.958772,5.80768 -3.541945,3.65003 -5.980694,8.03996 -7.1924,12.94685 -0.573784,2.32358 -0.808317,4.33185 -0.808424,6.92242 -1.44e-4,3.41142 0.535651,6.52597 1.658066,9.63832 3.190449,8.8468 10.735203,15.71115 19.76253,17.98029 2.487093,0.62517 6.013583,1.06842 5.905793,0.74231 z m -0.67734,-16.46064 c 0.0118,-6.43271 -0.01,-11.77943 -0.0473,-11.88162 -0.0509,-0.13756 -2.54002,-1.51312 -9.588792,-5.29903 -5.236039,-2.81228 -9.561418,-5.11361 -9.611953,-5.11406 -0.09298,-8.4e-4 -0.20428,10.17021 -0.204398,18.6795 l -5.3e-5,3.82132 0.324682,0.29333 c 0.178576,0.16133 0.812664,0.56962 1.409085,0.90731 0.596421,0.33769 2.417005,1.41028 4.045743,2.38352 1.628737,0.97325 2.989146,1.76954 3.02313,1.76954 0.135364,0 1.451598,-1.0426 1.736635,-1.3756 0.167088,-0.1952 0.403024,-0.55773 0.524302,-0.80561 0.198732,-0.4062 0.21622,-0.51932 0.177102,-1.14558 -0.05927,-0.94883 -0.441668,-2.05116 -1.504012,-4.33554 -1.343046,-2.88799 -1.66328,-4.01172 -1.589542,-5.57785 0.04402,-0.93492 0.183178,-1.37915 0.556867,-1.77766 0.218004,-0.23249 0.79677,-0.55503 1.003009,-0.55897 0.05353,-0.001 0.163015,0.29342 0.243292,0.65431 0.254309,1.14327 0.676935,1.91415 1.559906,2.84528 l 0.470134,0.49578 v 1.10597 1.10598 l 0.465667,0.27878 c 0.256117,0.15333 0.528921,0.28027 0.606233,0.28208 0.173525,0.004 0.194133,-0.24559 0.366109,-4.43512 0.130353,-3.17558 0.124151,-3.26625 -0.223428,-3.26625 -0.309927,0 -0.753834,-0.24907 -1.205881,-0.67659 l -0.455175,-0.43049 -0.296248,0.14127 c -0.488994,0.23319 -1.161318,0.0434 -2.012327,-0.56819 -0.101485,-0.0729 -0.202622,-0.0447 -0.456315,0.12748 -0.422,0.28638 -0.86394,0.28821 -1.426006,0.006 -0.443837,-0.22293 -0.654295,-0.22262 -0.654295,9.6e-4 0,0.27191 -0.319586,0.46833 -0.762,0.46833 h -0.423334 v 0.51451 c 0,0.45247 -0.02847,0.5418 -0.236112,0.74083 -0.129862,0.12448 -0.309317,0.26762 -0.398789,0.31809 -0.14986,0.0845 -0.154604,0.12673 -0.06022,0.53562 0.180272,0.78098 0.08695,1.30325 -0.337249,1.8874 -0.08472,0.11666 -0.0755,0.22521 0.04839,0.56974 0.253662,0.70541 0.264413,1.33153 0.03128,1.82194 l -0.199247,0.41913 0.207372,0.5122 c 0.368968,0.91134 0.337309,1.76395 -0.0872,2.34854 -0.08441,0.11624 -0.067,0.24739 0.09299,0.70058 0.271566,0.76924 0.2267,1.50473 -0.109428,1.79386 -0.127176,0.10939 -0.331375,0.19889 -0.453776,0.19889 -0.307296,0 -0.872735,-0.2876 -1.164803,-0.59245 l -0.243554,-0.25422 h 0.383718 c 0.53666,0 0.707986,-0.20397 0.701015,-0.8346 -0.0055,-0.49554 -0.19347,-0.97075 -0.597056,-1.50925 -0.256466,-0.34219 -0.25375,-0.36548 0.04262,-0.36548 0.134541,0 0.334566,-0.0729 0.4445,-0.16204 0.175644,-0.14238 0.199407,-0.23221 0.195981,-0.74083 -0.0043,-0.63572 -0.174237,-1.06152 -0.631621,-1.58245 -0.300404,-0.34214 -0.31051,-0.39335 -0.07763,-0.39335 0.09671,0 0.287215,-0.11137 0.423333,-0.24748 0.190024,-0.19003 0.247487,-0.32517 0.247487,-0.58203 0,-0.45331 -0.194913,-0.97302 -0.550617,-1.46813 -0.162827,-0.22665 -0.296049,-0.43104 -0.296049,-0.45422 0,-0.0232 0.09714,-0.0421 0.215871,-0.0421 0.491763,0 0.884795,-0.418 0.884795,-0.94101 0,-0.24423 -0.252592,-0.92279 -0.474167,-1.27379 -0.111741,-0.17701 -0.203166,-0.33889 -0.203166,-0.35973 0,-0.0208 0.203115,-0.0169 0.451366,0.009 0.41803,0.0431 0.464927,0.0293 0.635,-0.18687 0.22044,-0.28025 0.236059,-0.68068 0.05087,-1.30427 -0.07302,-0.24588 -0.116791,-0.46302 -0.09727,-0.48254 0.01952,-0.0195 0.203085,0.0405 0.407926,0.13349 0.204843,0.0929 0.456041,0.16982 0.558219,0.17084 0.300736,0.003 0.618445,-0.33688 0.670964,-0.71781 0.08239,-0.59755 0.09072,-0.59967 0.570998,-0.14545 0.541374,0.51201 0.958305,0.66003 1.372108,0.48713 0.271398,-0.1134 0.544485,-0.49498 0.544485,-0.76081 0,-0.21215 0.133243,-0.15217 0.379675,0.17092 0.303699,0.39817 0.836546,0.77754 1.247551,0.88821 0.476873,0.12841 0.864869,-0.0209 1.141823,-0.43941 l 0.221002,-0.33396 0.227842,0.41664 c 0.370919,0.67828 0.58238,0.93156 0.964911,1.15574 0.428631,0.25119 1.0937,0.28451 1.663844,0.0833 0.200533,-0.0708 0.393401,-0.0993 0.428596,-0.0635 0.07293,0.0742 -0.381386,10.75184 -0.460857,10.83131 -0.04071,0.0407 -1.522992,-0.77624 -3.390052,-1.86841 -0.147003,-0.086 -0.154337,-0.1812 -0.105391,-1.36823 l 0.05261,-1.27581 -0.448793,-0.59239 c -0.246836,-0.32581 -0.552595,-0.81162 -0.679465,-1.07957 -0.265611,-0.56098 -0.418306,-0.59283 -0.66192,-0.13808 -0.495516,0.92498 0.177622,2.91162 2.0086,5.92799 0.409866,0.67522 0.855367,1.48929 0.990002,1.80905 0.986499,2.34294 0.976527,5.19335 -0.02369,6.77052 -0.139859,0.22054 -0.254289,0.44865 -0.254289,0.50692 0,0.16965 7.31405,4.47742 7.53533,4.4381 0.11205,-0.0199 0.12953,-1.39984 0.14847,-11.7184 z m 3.91554,11.41575 c 0.11642,-0.0692 0.34502,-0.21004 0.508,-0.3131 0.16298,-0.10306 0.96308,-0.57942 1.778,-1.05859 3.03552,-1.78486 7.00437,-4.14276 7.58295,-4.50504 l 0.59795,-0.37441 0.73938,-1.36536 c 1.281,-2.36555 1.81736,-3.85661 1.71145,-4.75777 -0.10442,-0.88845 -0.36665,-1.28433 -1.73846,-2.62456 -1.35081,-1.31972 -1.54812,-1.60587 -1.74377,-2.52892 -0.33036,-1.55864 0.0715,-3.23092 1.15201,-4.79393 0.24217,-0.35031 0.49318,-0.63693 0.5578,-0.63693 0.0646,0 0.20712,0.20003 0.31666,0.4445 0.34168,0.76257 0.72096,0.99484 1.62454,0.99484 h 0.54482 v 0.97632 c 0,0.83292 0.0207,0.98427 0.14104,1.03044 0.18763,0.072 1.04429,-0.39169 1.12651,-0.60976 0.0351,-0.0931 0.0887,-1.38854 0.11918,-2.87867 0.0304,-1.49013 0.0758,-3.09033 0.10088,-3.556 0.0601,-1.11701 0.0218,-1.16422 -0.62173,-0.76701 -0.34124,0.21062 -0.66335,0.33442 -0.98298,0.3778 -0.26148,0.0355 -0.48734,0.0804 -0.5019,0.0999 -0.0146,0.0194 -0.1635,0.22618 -0.33096,0.45943 -0.47651,0.66369 -1.02238,1.04276 -2.11615,1.46952 -0.14749,0.0575 -0.30691,0.24185 -0.44512,0.5146 -0.29543,0.58301 -1.08482,1.38481 -1.694,1.72065 -0.50511,0.27846 -0.56968,0.35917 -0.86251,1.07815 -0.0907,0.22257 -0.37171,0.59525 -0.67592,0.89623 l -0.52074,0.51524 v 0.51175 c 0,0.58647 -0.19213,1.09107 -0.65608,1.7231 l -0.30257,0.41218 0.14535,0.4611 c 0.17163,0.54448 0.0916,1.12425 -0.26176,1.89608 -0.25602,0.55921 -0.26108,0.68979 -0.0425,1.09754 0.24015,0.44806 0.22338,1.12837 -0.0454,1.84251 -0.20856,0.5541 -0.2104,0.57669 -0.0635,0.78297 0.56613,0.79503 0.57794,1.30694 0.0613,2.65565 -0.14737,0.38468 -0.14681,0.39531 0.037,0.69266 0.53406,0.86413 0.14816,2.20673 -0.93419,3.25024 -0.51585,0.49733 -1.51044,0.97257 -1.51044,0.72171 0,-0.0369 0.17449,-0.23689 0.38776,-0.4445 0.72054,-0.70141 1.07633,-1.56737 0.88373,-2.15094 -0.0977,-0.2961 -0.42974,-0.55485 -0.71196,-0.55485 -0.26367,0 -0.21259,-0.17876 0.19599,-0.6858 0.89677,-1.11287 0.91336,-2.29951 0.0349,-2.49285 -0.46451,-0.10223 -0.46513,-0.10432 -0.15173,-0.51489 0.50144,-0.65692 0.66257,-1.03881 0.6684,-1.58412 0.005,-0.43952 -0.0209,-0.51655 -0.23227,-0.6985 -0.13066,-0.11248 -0.32843,-0.20451 -0.43951,-0.20451 -0.34628,0 -0.32309,-0.1574 0.0907,-0.61571 0.50005,-0.55385 0.88253,-1.33905 0.88262,-1.81196 7e-5,-0.37083 -0.31827,-0.87433 -0.5528,-0.87433 -0.29438,0 -0.18195,-0.2285 0.37261,-0.75729 0.90513,-0.86306 1.15278,-1.60409 0.77292,-2.31282 -0.0931,-0.17377 -0.16933,-0.35354 -0.16933,-0.39949 0,-0.046 0.18097,-0.17605 0.40217,-0.28912 0.22119,-0.11306 0.56148,-0.34304 0.75621,-0.51107 0.41864,-0.36124 0.87314,-1.21811 0.87477,-1.64923 0.002,-0.58793 0.0663,-0.68489 0.45322,-0.68581 1.00012,-0.002 1.97626,-0.94841 2.35786,-2.28517 l 0.10877,-0.381 0.508,-0.003 c 1.0098,-0.006 1.97438,-0.82919 2.45406,-2.09548 0.0844,-0.22271 0.18621,-0.42521 0.22632,-0.45 0.0401,-0.0248 0.17294,0.0336 0.29519,0.12977 0.26965,0.2121 0.77817,0.23016 1.14465,0.0406 0.36085,-0.1866 0.93411,-0.73002 1.43758,-1.36273 0.23418,-0.2943 0.46673,-0.53509 0.51679,-0.53509 0.0959,0 0.0634,2.37145 -0.1089,7.95867 -0.0769,2.49276 -0.10507,2.85372 -0.23259,2.97989 -0.24783,0.24519 -3.49242,1.86308 -3.63024,1.81019 -0.11094,-0.0426 -0.12054,-0.21223 -0.0688,-1.21586 0.0679,-1.31807 0.0858,-1.27398 -0.58474,-1.44323 -0.22736,-0.0574 -0.50602,-0.17721 -0.61924,-0.26627 -0.27964,-0.21997 -0.39946,-0.15067 -0.6291,0.36383 -0.25235,0.56539 -0.2756,1.56393 -0.0463,1.98867 0.38638,0.71574 1.1612,1.33297 2.4503,1.95194 0.87511,0.42019 1.20747,0.80269 1.51812,1.74717 0.17083,0.51938 0.19433,0.75494 0.18998,1.905 -0.005,1.35317 -0.13815,2.15973 -0.55731,3.37876 -0.1898,0.55199 -0.1991,0.76991 -0.0329,0.76991 0.0685,0 0.89717,-0.46142 1.8415,-1.02539 0.94434,-0.56396 2.0692,-1.23282 2.4997,-1.48634 0.52167,-0.30723 0.79767,-0.52294 0.82754,-0.64678 0.0246,-0.1022 0.0344,-5.1764 0.0216,-11.276 -0.0214,-10.24309 -0.0339,-11.09224 -0.16339,-11.11717 -0.1299,-0.025 -1.54155,0.7156 -6.42148,3.369 -1.04775,0.5697 -2.64795,1.43663 -3.556,1.9265 -0.90805,0.48988 -2.7178,1.4709 -4.02166,2.18004 -1.30387,0.70914 -3.05647,1.66061 -3.89467,2.11437 -0.8382,0.45377 -1.58115,0.87935 -1.651,0.94574 -0.11147,0.10594 -0.12984,1.54546 -0.1502,11.76941 -0.0166,8.36012 0.003,11.6803 0.0697,11.76063 0.0977,0.11777 0.23923,0.0894 0.58851,-0.11807 z m -1.06272,-26.99276 c 0.65435,-0.35611 3.07567,-1.66555 5.38072,-2.90986 14.04344,-7.5809 12.73887,-6.85224 12.56937,-7.0206 -0.0783,-0.0778 -3.78127,-2.32853 -5.16104,-3.13699 -0.37253,-0.21828 -1.99178,-1.18762 -3.59833,-2.15408 -1.60655,-0.96646 -3.03912,-1.77681 -3.18348,-1.80078 -0.66478,-0.11037 -4.32443,0.33576 -5.00868,0.61059 -0.69352,0.27855 -1.29345,1.16459 -1.54326,2.27929 -0.0449,0.20039 -0.15965,1.00753 -0.25498,1.79363 -0.2611,2.15307 -0.55356,2.87248 -1.54973,3.81222 -0.85539,0.80694 -1.317,0.99929 -2.40407,1.00176 -1.10494,0.003 -1.1446,-0.0327 -0.82838,-0.73515 0.32045,-0.71186 0.32285,-1.37165 0.007,-2.06045 -0.1231,-0.26889 -0.20354,-0.55282 -0.17874,-0.63094 0.0248,-0.0781 0.29215,-0.3603 0.59412,-0.62706 0.30197,-0.26677 0.54903,-0.55433 0.54903,-0.63904 0,-0.0847 -0.15527,-0.2943 -0.34505,-0.46575 -0.34113,-0.30819 -0.3476,-0.31008 -0.56848,-0.16535 -0.25096,0.16444 -4.54771,4.04611 -4.634864,4.18713 -0.03075,0.0498 0.166837,0.30724 0.439079,0.57219 0.272242,0.26495 0.559889,0.60555 0.639215,0.75689 0.100753,0.19223 0.204587,0.27517 0.344466,0.27517 0.54424,0 1.106455,0.26927 1.606712,0.76953 0.484016,0.48401 0.51512,0.50047 0.945912,0.50047 0.65121,0 1.19636,0.19546 1.67811,0.60168 0.4226,0.35634 0.42793,0.35808 0.79639,0.25953 0.50182,-0.13421 0.73839,-0.12516 1.22252,0.0468 l 0.41106,0.146 0.27764,-0.26284 c 0.4057,-0.38409 0.5864,-0.45249 1.19535,-0.45249 h 0.54785 l 0.21805,-0.37208 c 0.29781,-0.50818 0.64458,-0.77912 1.21837,-0.95197 0.58283,-0.17557 0.64019,-0.22637 0.76885,-0.68108 0.103,-0.36403 0.7552,-1.04287 1.00195,-1.04287 0.0656,0 0.23137,-0.058 0.36837,-0.12881 0.19184,-0.0992 0.26148,-0.20636 0.30305,-0.46632 0.0875,-0.54724 0.45741,-1.04185 0.97033,-1.29744 0.24734,-0.12326 0.51376,-0.2241 0.59205,-0.2241 0.18177,0 0.26841,-0.11733 0.45032,-0.60989 0.23265,-0.62992 0.8792,-1.08128 1.55129,-1.08297 0.52653,-0.001 1.50604,0.53581 1.72576,0.94637 0.13377,0.24995 0.0544,0.26958 -0.51066,0.12619 -1.20412,-0.30558 -1.83778,0.37683 -1.51941,1.6363 0.023,0.0908 -0.0282,0.12169 -0.17956,0.10837 -1.1616,-0.10226 -1.56717,0.0456 -1.81347,0.66116 -0.1331,0.33265 -0.1105,0.61423 0.0915,1.14077 0.038,0.0989 -0.068,0.1217 -0.5662,0.1217 -1.06513,0 -1.4234,0.38337 -1.31816,1.41053 0.0567,0.55304 0.0554,0.55782 -0.13676,0.50129 -0.51307,-0.15096 -1.14306,-0.15342 -1.45441,-0.006 -0.42635,0.20232 -0.68174,0.69981 -0.61378,1.19563 0.0273,0.19921 0.0162,0.38287 -0.0247,0.40813 -0.0409,0.0253 -0.27805,-0.0489 -0.52704,-0.16482 -0.51667,-0.24053 -0.90473,-0.26761 -1.25309,-0.0875 -0.25261,0.13063 -0.59664,0.60758 -0.59664,0.82717 0,0.0703 -0.0562,0.17449 -0.12499,0.23155 -0.10194,0.0846 -0.18393,0.0575 -0.4445,-0.14672 -0.48587,-0.38085 -0.68891,-0.46382 -1.13506,-0.46382 -0.3136,0 -0.50519,0.0616 -0.82022,0.26377 -0.22608,0.14507 -0.43824,0.26376 -0.47146,0.26376 -0.0332,0 -0.1142,-0.12875 -0.17995,-0.28611 -0.17179,-0.41115 -0.54022,-0.81946 -0.85998,-0.95306 -0.39129,-0.1635 -1.02393,-0.14002 -1.451099,0.0538 l -0.364931,0.16562 -0.121903,-0.29176 c -0.06705,-0.16046 -0.121904,-0.32975 -0.121904,-0.37619 0,-0.16211 -0.536981,-0.69435 -0.874006,-0.86628 -0.336105,-0.17147 -0.502927,-0.17704 -1.581327,-0.0528 -0.203267,0.0234 -0.213621,0.002 -0.260909,-0.54876 -0.04084,-0.47535 -0.08986,-0.61555 -0.287265,-0.8216 -0.306293,-0.3197 -0.677775,-0.49306 -1.289536,-0.60181 -0.67889,-0.12068 -0.786957,-0.15863 -0.786957,-0.27635 0,-0.0934 0.867922,-0.89611 4.145714,-3.83432 0.630274,-0.56498 1.507903,-1.35467 1.950283,-1.75486 0.44239,-0.40019 0.8466,-0.72851 0.89825,-0.7296 0.16564,-0.003 2.65775,2.24093 2.65775,2.3936 0,0.0488 -0.35064,0.41988 -0.77921,0.82466 l -0.77921,0.73597 0.10188,0.44136 c 0.056,0.24274 0.10188,0.648 0.10188,0.90056 0,0.44178 0.009,0.45921 0.22727,0.45921 0.34204,0 0.93569,-0.32064 1.17532,-0.63482 0.53135,-0.69663 0.73583,-2.1192 0.55646,-3.87123 -0.0633,-0.61826 -0.0661,-1.05024 -0.009,-1.35467 0.3258,-1.72892 2.05899,-3.45053 4.12852,-4.10096 0.53378,-0.16776 0.69623,-0.2536 0.67626,-0.35732 -0.0247,-0.1284 -0.99388,-0.74646 -2.8754,-1.83371 -0.79385,-0.45874 -0.82681,-0.46952 -1.0628,-0.34748 -0.21685,0.11213 -2.45192,1.45847 -5.780261,3.48185 -0.62865,0.38217 -2.91465,1.77205 -5.08,3.08863 -2.16535,1.31658 -4.3942,2.67068 -4.953,3.0091 -2.706477,1.63913 -2.963333,1.8092 -2.963333,1.9621 0,0.14015 2.007435,1.35165 4.656667,2.81034 0.325966,0.17948 1.049866,0.58415 1.608666,0.89927 0.5588,0.31512 1.7399,0.97352 2.624667,1.46311 0.884767,0.48959 2.275417,1.26002 3.090333,1.71206 3.834731,2.12716 6.458911,3.46374 6.811281,3.46918 0.0907,0.001 0.70033,-0.28882 1.35466,-0.64494 z"
       style="fill:#343233;stroke-width:0.08466667;fill-opacity:1" />
    <path
       inkscape:connector-curvature="0"
       id="path4552"
       d="m 103.59513,175.88892 c -10.799082,-0.72026 -20.386831,-6.54386 -26.001007,-15.79303 -0.807005,-1.32951 -2.067169,-3.93386 -2.612793,-5.39979 -0.858541,-2.30665 -1.480928,-4.84798 -1.839331,-7.51037 -0.194152,-1.44225 -0.22125,-6.33012 -0.04224,-7.62 0.608026,-4.3813 1.550353,-7.53879 3.284902,-11.00684 5.113522,-10.22396 15.224431,-17.03202 26.666179,-17.95536 1.54458,-0.12465 5.19484,-0.0551 6.53659,0.12459 3.9276,0.52591 7.31457,1.54422 10.61273,3.19079 9.80591,4.89547 16.50738,14.3154 17.89427,25.15312 0.89308,6.97887 -0.51893,14.17961 -3.9735,20.26337 -0.77262,1.36065 -1.9331,3.0704 -2.95955,4.36033 -1.11888,1.40611 -3.70898,3.98904 -5.12284,5.10867 -4.9648,3.93163 -10.65248,6.26599 -16.94008,6.95263 -1.45471,0.15886 -4.13563,0.22311 -5.50332,0.13189 z m 1.06151,-4.155 c 0.0236,-0.0382 -0.006,-0.1136 -0.0648,-0.16766 -0.0592,-0.0541 -5.308339,-3.36602 -11.664689,-7.35991 l -11.557,-7.26161 v -13.95131 -13.95131 l 9.228667,-5.57871 c 5.075766,-3.06829 10.352612,-6.25928 11.726332,-7.09109 1.37372,-0.83181 2.49767,-1.5638 2.49767,-1.62665 0,-0.17261 -1.76707,-0.12044 -3.25967,0.0962 -5.15176,0.74787 -9.790628,2.76826 -13.927666,6.06599 -1.19116,0.9495 -3.350199,3.10748 -4.308943,4.30683 -5.919936,7.40562 -7.815142,16.88733 -5.210066,26.06595 0.393002,1.38468 0.950672,2.82023 1.691473,4.35416 0.99111,2.05223 2.074919,3.7846 3.453981,5.52089 0.750128,0.94444 3.3349,3.55575 4.246555,4.29015 4.760028,3.83455 10.410453,6.03037 16.467666,6.39955 0.39254,0.0239 0.61983,-0.0133 0.68051,-0.11151 z m 4.01849,-0.003 c 10.3079,-1.0848 19.28459,-7.73758 23.35125,-17.30601 1.5392,-3.62158 2.25022,-7.15371 2.24971,-11.176 -2.6e-4,-2.28456 -0.13686,-3.72115 -0.54459,-5.72866 -1.7394,-8.56403 -7.32806,-15.90321 -15.12796,-19.86641 -3.67996,-1.86982 -8.31579,-3.06459 -11.89092,-3.06459 -0.6618,0 -0.75573,0.018 -0.73187,0.14047 0.0165,0.0846 4.77526,2.96416 11.96143,7.23796 6.56373,3.90362 11.95805,7.14558 11.98738,7.20436 0.0474,0.0951 -0.0463,9.22455 -0.23454,22.83237 l -0.0649,4.69151 -3.81,2.37821 c -6.89481,4.30376 -11.79537,7.35921 -15.83267,9.87152 -2.18863,1.36193 -4.05063,2.5438 -4.13777,2.62638 -0.0926,0.0877 -0.13158,0.1936 -0.0939,0.25464 0.0695,0.11247 1.33522,0.071 2.9193,-0.0958 z m -4.84829,-16.62867 c 0.011,-6.51934 -0.01,-11.90052 -0.0467,-11.9582 -0.0966,-0.1517 -19.118756,-10.35147 -19.30508,-10.35147 -0.148886,0 -0.158928,0.18678 -0.21242,3.95091 -0.03088,2.17299 -0.05615,7.27543 -0.05615,11.33873 v 7.38783 l 0.331427,0.28369 c 0.182286,0.15603 0.629961,0.45102 0.994834,0.65554 0.364873,0.20452 2.18961,1.27997 4.05497,2.38991 1.86536,1.10993 3.439682,2.01806 3.498494,2.01806 0.198668,0 1.172228,-0.75896 1.724402,-1.34429 0.630692,-0.66857 0.825873,-1.1216 0.825873,-1.91692 0,-0.9882 -0.348361,-2.03371 -1.477882,-4.43547 -1.325762,-2.81904 -1.599837,-3.70825 -1.607371,-5.21499 -0.0032,-0.64478 0.03917,-1.16852 0.116036,-1.43345 0.144701,-0.49874 0.593052,-0.98215 1.037416,-1.11853 l 0.310525,-0.0953 0.136286,0.61258 c 0.07496,0.33692 0.270895,0.89347 0.435416,1.23676 0.310473,0.64785 1.099312,1.70164 1.39043,1.85745 0.154089,0.0825 0.167144,0.18123 0.167144,1.26448 v 1.17504 l 0.606565,0.34971 c 0.333611,0.19234 0.654794,0.3312 0.71374,0.30858 0.154568,-0.0593 0.18093,-0.39348 0.33335,-4.22544 0.146196,-3.6755 0.144569,-3.69955 -0.250398,-3.69955 -0.318836,0 -1.060396,-0.42804 -1.336256,-0.77131 -0.297462,-0.37015 -0.353143,-0.38481 -0.736019,-0.19381 -0.186796,0.0932 -0.36799,0.11748 -0.579832,0.0777 -0.368001,-0.069 -1.045842,-0.40072 -1.201002,-0.58768 -0.159853,-0.19261 -0.409784,-0.16467 -0.698255,0.0781 -0.339414,0.2856 -0.749844,0.27462 -1.383715,-0.037 -0.278215,-0.13679 -0.536525,-0.21851 -0.574024,-0.18159 -0.0375,0.0369 -0.132749,0.19646 -0.211666,0.35454 -0.137063,0.27455 -0.164337,0.28742 -0.609154,0.28742 h -0.465667 l -0.04866,0.62644 c -0.0401,0.51615 -0.08274,0.65403 -0.242212,0.78316 -0.106453,0.0862 -0.241813,0.15673 -0.300802,0.15673 -0.259245,0 -0.30168,0.2196 -0.152412,0.78872 0.126162,0.48103 0.131375,0.61398 0.03779,0.96413 -0.05971,0.22338 -0.187024,0.48974 -0.282932,0.59191 -0.19164,0.20415 -0.187089,0.30377 0.0549,1.20169 0.170674,0.6333 0.122219,1.15897 -0.137241,1.48882 -0.09713,0.12348 -0.152723,0.28506 -0.125854,0.36579 0.02647,0.0795 0.143812,0.41131 0.260758,0.73727 0.279675,0.77955 0.277097,1.23346 -0.01023,1.80136 l -0.227234,0.44912 0.184901,0.5741 c 0.300747,0.93379 0.223312,1.58325 -0.212441,1.7818 -0.267407,0.12184 -0.729363,0.005 -1.12091,-0.28414 -0.295949,-0.21834 -0.287418,-0.23403 0.183213,-0.33706 0.278335,-0.0609 0.488373,-0.42537 0.488373,-0.8474 0,-0.382 -0.26189,-1.0738 -0.549001,-1.45022 -0.204226,-0.26776 -0.210039,-0.29621 -0.06973,-0.34134 0.54411,-0.17502 0.703402,-0.40168 0.703402,-1.00089 0,-0.48942 -0.187922,-0.99462 -0.556987,-1.49739 -0.235389,-0.32066 -0.272305,-0.41427 -0.163378,-0.41427 0.0774,0 0.252093,-0.11137 0.388211,-0.24749 0.21231,-0.21231 0.247223,-0.31159 0.245628,-0.6985 -0.002,-0.48289 -0.203322,-1.02202 -0.552733,-1.48012 -0.25807,-0.33835 -0.257835,-0.36789 0.0029,-0.36789 0.115683,0 0.334758,-0.11126 0.486833,-0.24725 0.2577,-0.23043 0.276354,-0.28369 0.274312,-0.78316 -0.0018,-0.43759 -0.05079,-0.62525 -0.267024,-1.02276 l -0.264832,-0.48683 h 0.376706 c 0.292157,0 0.425789,-0.0491 0.595397,-0.21869 0.203627,-0.20363 0.215401,-0.25758 0.17093,-0.78317 -0.02627,-0.31046 -0.07368,-0.6501 -0.105357,-0.75475 -0.05686,-0.18784 -0.0537,-0.18866 0.245834,-0.0635 0.632791,0.26439 1.160188,0.0503 1.286166,-0.5221 0.105162,-0.47782 0.109101,-0.47874 0.516281,-0.12033 0.785418,0.69135 1.510649,0.6449 1.882999,-0.12061 l 0.154281,-0.31718 0.232249,0.30449 c 0.31631,0.4147 0.919875,0.79871 1.358834,0.86454 0.437092,0.0656 0.894289,-0.12044 1.060777,-0.43153 0.06118,-0.11431 0.14022,-0.20784 0.175651,-0.20784 0.03543,0 0.15108,0.17352 0.256998,0.3856 0.290168,0.58101 0.888578,1.09964 1.392363,1.20675 0.426425,0.0907 1.064817,0.0212 1.386344,-0.15091 0.08964,-0.048 0.178807,-0.0585 0.198148,-0.0235 0.05055,0.0916 -0.425825,10.52589 -0.483174,10.58324 -0.02632,0.0263 -0.781693,-0.37515 -1.678614,-0.89214 l -1.630764,-0.93998 0.02831,-1.2957 0.02832,-1.29569 L 94.801,148.6459 c -0.234528,-0.29133 -0.543783,-0.77563 -0.687234,-1.0762 -0.143451,-0.30057 -0.300082,-0.57076 -0.34807,-0.60042 -0.109101,-0.0674 -0.394618,0.18518 -0.550914,0.48743 -0.156893,0.30339 -0.150199,1.14814 0.01412,1.78228 0.07285,0.28114 0.293911,0.87719 0.491245,1.32456 0.318648,0.72239 0.664151,1.34976 2.056568,3.73439 1.425518,2.44132 1.6096,5.91687 0.406317,7.67141 -0.163103,0.23783 -0.275558,0.48548 -0.249901,0.55034 0.02566,0.0649 1.175337,0.78467 2.554843,1.59959 4.436696,2.62089 4.884616,2.87114 5.107136,2.8533 l 0.21167,-0.017 z m 4.34285,11.27417 c 3.70467,-2.18082 9.71522,-5.77231 9.83767,-5.87833 0.19019,-0.16466 1.47947,-2.55071 1.91753,-3.54873 0.54252,-1.236 0.71134,-1.88354 0.67547,-2.59079 -0.0548,-1.08068 -0.43645,-1.64638 -2.10409,-3.11882 -1.07984,-0.95344 -1.43732,-1.76189 -1.43688,-3.2495 3.3e-4,-1.03599 0.15706,-1.73688 0.58782,-2.62824 0.37124,-0.76819 1.06541,-1.75882 1.20084,-1.71368 0.0492,0.0164 0.1407,0.17871 0.20325,0.36065 0.26815,0.78 0.71538,1.08737 1.59531,1.09642 l 0.60152,0.006 v 1.016 c 0,1.20273 0.0254,1.22624 0.84667,0.7825 l 0.508,-0.2745 0.0524,-1.22767 c 0.13979,-3.27442 0.17916,-6.51933 0.0791,-6.51933 -0.0555,0 -0.27469,0.1195 -0.48698,0.26556 -0.41972,0.28877 -1.07916,0.52223 -1.29013,0.45673 -0.17941,-0.0557 -0.26852,0.0168 -0.57532,0.46788 -0.48116,0.70748 -1.19647,1.22947 -2.07413,1.51358 -0.26158,0.0847 -0.36322,0.19135 -0.59267,0.62202 -0.37102,0.6964 -1.0001,1.3166 -1.69676,1.67282 -0.51297,0.2623 -0.5828,0.32859 -0.665,0.63126 -0.15579,0.5736 -0.38348,0.93032 -0.88842,1.3918 -0.47643,0.43543 -0.485,0.45137 -0.46606,0.86657 0.0256,0.56132 -0.17052,1.12052 -0.61908,1.76508 -0.36722,0.52767 -0.36803,0.5305 -0.24066,0.83534 0.19726,0.47211 0.106,1.30689 -0.21872,2.00081 -0.31327,0.66943 -0.31948,0.73761 -0.0949,1.04142 0.28713,0.38836 0.30402,0.97512 0.0499,1.73208 -0.1215,0.36187 -0.22091,0.69779 -0.22091,0.74648 0,0.0487 0.0931,0.21058 0.20687,0.35975 0.42675,0.5595 0.42367,1.31477 -0.01,2.39749 l -0.21277,0.5315 0.16606,0.23575 c 0.22668,0.3218 0.29597,0.57678 0.28531,1.04998 -0.0178,0.78787 -0.59253,1.81045 -1.3532,2.40747 -0.44056,0.34579 -1.16208,0.69593 -1.25094,0.60708 -0.0228,-0.0228 0.17112,-0.25409 0.43097,-0.51394 0.84669,-0.84669 1.13493,-1.86874 0.67962,-2.40984 -0.12679,-0.15068 -0.32981,-0.27324 -0.508,-0.30666 -0.16325,-0.0306 -0.29681,-0.0849 -0.29681,-0.12067 0,-0.0358 0.11861,-0.1769 0.26359,-0.31367 0.5668,-0.53471 0.98605,-1.48797 0.88689,-2.01655 -0.0757,-0.40327 -0.4251,-0.72979 -0.78103,-0.72979 -0.35417,0 -0.35807,-0.10584 -0.0182,-0.49296 0.37004,-0.42145 0.69295,-1.16329 0.69295,-1.59196 0,-0.49956 -0.20364,-0.77152 -0.66461,-0.88759 -0.20879,-0.0526 -0.37837,-0.11964 -0.37684,-0.14904 0.002,-0.0294 0.17187,-0.22327 0.37855,-0.43083 0.55099,-0.55332 0.92106,-1.29297 0.92656,-1.85191 0.004,-0.40532 -0.0237,-0.47647 -0.27205,-0.6985 -0.15208,-0.13596 -0.33305,-0.24721 -0.40217,-0.24721 -0.20862,0 -0.1509,-0.0804 0.47141,-0.65654 0.32839,-0.30404 0.67669,-0.70886 0.774,-0.89961 0.24844,-0.48698 0.2452,-1.11089 -0.008,-1.5204 -0.10845,-0.17546 -0.1833,-0.33122 -0.16635,-0.34613 0.017,-0.0149 0.16418,-0.0935 0.32716,-0.17474 0.16298,-0.0812 0.49352,-0.29468 0.73454,-0.47442 0.55256,-0.41209 0.95075,-1.16565 1.0201,-1.93054 l 0.0469,-0.51695 h 0.41429 c 0.52292,0 0.88833,-0.15217 1.33552,-0.55619 0.44505,-0.40208 0.75792,-0.93323 0.93903,-1.5942 l 0.14156,-0.51661 0.46685,0.0283 c 0.3688,0.0223 0.55367,-0.0162 0.88021,-0.18337 0.65578,-0.33576 1.35826,-1.1471 1.60188,-1.85013 0.0696,-0.20098 0.14489,-0.41576 0.1672,-0.47727 0.0308,-0.0849 0.10157,-0.0684 0.29412,0.0687 0.13945,0.0993 0.38136,0.20128 0.53758,0.22663 0.52969,0.086 1.27281,-0.44051 2.04522,-1.44897 0.2694,-0.35173 0.52847,-0.63951 0.5757,-0.63951 0.0568,0 0.0677,0.48073 0.0324,1.41817 -0.0294,0.77999 -0.0946,3.15172 -0.14493,5.2705 -0.0503,2.11878 -0.10843,3.93593 -0.1292,4.0381 -0.0292,0.14366 -0.42627,0.38714 -1.75185,1.07426 -0.94274,0.48866 -1.78075,0.91397 -1.86224,0.94512 -0.13718,0.0524 -0.14816,-0.0408 -0.14816,-1.25803 v -1.31466 l -0.254,-0.0491 c -0.1397,-0.027 -0.36529,-0.0705 -0.50131,-0.0966 -0.13602,-0.0262 -0.34754,-0.14048 -0.47003,-0.254 -0.1225,-0.11353 -0.25822,-0.20641 -0.3016,-0.20641 -0.0434,0 -0.18101,0.20002 -0.30584,0.4445 -0.31376,0.61452 -0.37565,1.56732 -0.13686,2.10714 0.34084,0.77053 0.90643,1.24668 2.29815,1.93475 0.58744,0.29044 0.92294,0.51694 1.13823,0.76845 0.96871,1.13173 1.02844,3.87213 0.13991,6.41986 -0.295,0.8459 -0.31061,0.98124 -0.10402,0.90196 0.26843,-0.103 5.31168,-3.11691 5.37523,-3.2123 0.0342,-0.0513 0.0628,-5.17138 0.0635,-11.37785 10e-4,-9.93821 -0.0138,-11.29029 -0.12532,-11.33308 -0.12482,-0.0479 -1.11191,0.46881 -6.73138,3.52366 -1.51342,0.82273 -3.78037,2.05275 -5.03767,2.73339 -1.2573,0.68065 -3.5814,1.94013 -5.16466,2.79887 l -2.87867,1.56133 -0.0423,11.84216 c -0.0233,6.51319 -0.0287,11.88978 -0.0121,11.94799 0.0166,0.0582 0.0559,0.10583 0.0872,0.10583 0.0314,0 0.5321,-0.27967 1.11277,-0.62149 z m 3.81685,-29.64973 c 3.60374,-1.94621 7.86671,-4.24278 9.47326,-5.10348 3.22474,-1.72765 3.30223,-1.77129 3.30146,-1.85941 -2.5e-4,-0.0339 -0.10507,-0.12247 -0.23283,-0.19692 -0.12777,-0.0745 -2.76884,-1.66024 -5.86905,-3.52396 -3.10021,-1.86373 -5.71312,-3.42947 -5.80646,-3.47942 -0.28172,-0.15077 -3.42419,0.12881 -4.72812,0.42065 -1.5209,0.34041 -2.02107,1.24499 -2.36907,4.28458 -0.076,0.66394 -0.19438,1.42283 -0.26304,1.68644 -0.1911,0.73365 -0.61075,1.43989 -1.20563,2.02894 -0.59798,0.59212 -1.17451,0.91412 -1.87726,1.04845 -0.47411,0.0906 -1.49253,0.0328 -1.56783,-0.0891 -0.0228,-0.0369 0.0635,-0.27053 0.19168,-0.51917 0.19832,-0.38455 0.23278,-0.55327 0.23068,-1.12942 -0.002,-0.57635 -0.0383,-0.7461 -0.24277,-1.13863 l -0.2403,-0.46129 0.70843,-0.66699 0.70844,-0.66699 -0.45101,-0.41744 c -0.3184,-0.29469 -0.48748,-0.39704 -0.575,-0.34807 -0.26543,0.14855 -4.858235,4.35401 -4.856801,4.4472 8.47e-4,0.0544 0.192277,0.22362 0.425421,0.37608 0.302338,0.19771 0.477931,0.39194 0.612312,0.67733 0.225104,0.47806 0.27948,0.52416 0.620279,0.52584 0.585831,0.003 1.421001,0.47963 1.737572,0.99185 0.170385,0.27569 0.181181,0.27945 0.803517,0.27945 0.75506,0 1.07761,0.12107 1.59628,0.59916 l 0.38847,0.35807 0.44215,-0.15002 c 0.45944,-0.1559 0.62295,-0.13894 1.31019,0.13593 0.26335,0.10533 0.2864,0.0981 0.52782,-0.16626 0.34744,-0.3804 0.77626,-0.54325 1.33984,-0.50884 l 0.46336,0.0283 0.22844,-0.42333 c 0.26073,-0.48317 0.79337,-0.86489 1.31994,-0.94597 0.43844,-0.0675 0.50289,-0.12801 0.63362,-0.59492 0.14101,-0.50365 0.59691,-0.96692 1.09796,-1.11572 0.4854,-0.14415 0.59021,-0.23395 0.5925,-0.50759 0.003,-0.33921 0.28143,-0.88049 0.58439,-1.13541 0.14942,-0.12573 0.4755,-0.28786 0.72462,-0.36028 0.51336,-0.14924 0.59096,-0.22119 0.66619,-0.61774 0.1815,-0.95667 1.34012,-1.40169 2.38389,-0.91563 0.39842,0.18554 1.03614,0.78205 0.93945,0.87875 -0.0242,0.0242 -0.19879,-0.0179 -0.38793,-0.0936 -0.70422,-0.28177 -1.40959,-0.0919 -1.7149,0.46161 -0.15885,0.28798 -0.16358,0.67377 -0.0144,1.1719 0.0534,0.17829 0.0404,0.19603 -0.10043,0.13712 -0.089,-0.0372 -0.35557,-0.0859 -0.59243,-0.10829 -0.99913,-0.0942 -1.65611,0.78519 -1.27249,1.70332 l 0.13503,0.32316 -0.48614,-0.0564 c -1.08467,-0.12589 -1.7166,0.5354 -1.4653,1.5334 0.054,0.21442 0.0869,0.40116 0.0731,0.41496 -0.0138,0.0138 -0.23128,-0.0284 -0.48328,-0.0938 -0.6559,-0.17014 -1.07759,-0.0824 -1.46775,0.3053 -0.30328,0.30138 -0.3175,0.34067 -0.3175,0.87723 v 0.56172 l -0.43599,-0.22093 c -0.8105,-0.41071 -1.51997,-0.25203 -1.84134,0.41184 -0.0979,0.20223 -0.178,0.41058 -0.178,0.46297 0,0.214 -0.19967,0.19408 -0.45182,-0.0451 -0.65809,-0.62416 -1.36175,-0.6887 -2.05789,-0.18877 -0.31059,0.22305 -0.40153,0.25465 -0.46128,0.1603 -0.0409,-0.0646 -0.075,-0.15943 -0.0757,-0.21065 -6.7e-4,-0.0512 -0.11823,-0.25456 -0.26115,-0.45185 -0.49405,-0.68202 -1.44144,-0.86855 -2.158986,-0.42508 -0.222849,0.13773 -0.298861,0.15329 -0.326398,0.0668 -0.01974,-0.062 -0.08016,-0.25659 -0.13427,-0.43239 -0.269371,-0.87529 -1.302618,-1.4156 -2.204045,-1.15256 -0.207594,0.0606 -0.409143,0.11181 -0.447887,0.11384 -0.03874,0.002 -0.07684,-0.22664 -0.08467,-0.50816 -0.02473,-0.89002 -0.46737,-1.29138 -1.68639,-1.52912 -0.407459,-0.0795 -0.740834,-0.1717 -0.740834,-0.20497 0,-0.0333 1.095375,-1.04987 2.434167,-2.25912 4.665243,-4.21382 4.519643,-4.08887 4.667893,-4.00586 0.11223,0.0628 2.21439,1.92236 2.50761,2.21816 0.0567,0.0572 -0.19168,0.34381 -0.75119,0.86697 l -0.83586,0.78156 0.14387,0.49488 c 0.08,0.27507 0.13157,0.68599 0.11619,0.92512 -0.0249,0.38752 -0.009,0.43284 0.15652,0.45647 0.30563,0.0435 1.01865,-0.31638 1.26394,-0.63797 0.1247,-0.16349 0.30708,-0.49278 0.40529,-0.73175 0.16593,-0.40375 0.17857,-0.59035 0.17857,-2.63584 v -2.20134 l 0.27558,-0.58188 c 0.38353,-0.80983 0.78979,-1.33416 1.49225,-1.92596 0.84978,-0.7159 1.87046,-1.20851 3.03701,-1.46571 0.12805,-0.0282 0.23148,-0.0982 0.22983,-0.15556 -0.003,-0.11205 -3.80023,-2.43255 -3.98035,-2.43255 -0.0595,0 -0.45437,0.21593 -0.87756,0.47985 -1.84025,1.14766 -11.528623,7.05441 -16.05176,9.78635 -1.823538,1.1014 -2.286,1.40359 -2.286,1.49379 0,0.14807 12.540898,7.17275 16.637,9.31908 1.36253,0.71396 2.25678,1.10969 2.42242,1.07198 0.075,-0.0171 3.08493,-1.62341 6.68866,-3.56961 z"
       style="fill:#343233;stroke-width:0.08466667" />
    <path
       style="fill:#ffffff;stroke-width:0.50507629"
       d="m 379.03948,623.07716 c -6.38922,-3.76807 -12.43685,-7.33 -13.43919,-7.91538 l -1.82244,-1.06433 1.44968,-3.09789 c 2.23246,-4.77067 2.80545,-9.96296 1.7724,-16.06112 -0.9661,-5.70297 -1.98148,-8.31761 -5.82267,-14.99358 -4.06922,-7.0723 -7.51386,-14.55506 -8.02155,-17.42513 -0.38171,-2.15791 0.0584,-6.31607 0.60734,-5.7375 0.0948,0.0999 1.21825,1.74592 2.49659,3.6578 l 2.32425,3.47615 0.006,5.11015 0.006,5.11015 5.92907,3.35903 c 8.2463,4.67183 8.17223,4.63799 8.45069,3.86009 0.40641,-1.13533 1.25805,-16.85475 1.60196,-29.56874 0.36809,-13.60757 0.64054,-12.62338 -3.24629,-11.72666 -3.18997,0.73596 -5.21809,-0.29183 -7.44487,-3.77284 -0.98847,-1.54524 -1.9607,-2.80808 -2.16051,-2.80633 -0.19981,0.002 -0.75046,0.68361 -1.22368,1.51523 -0.70603,1.24077 -1.18718,1.51204 -2.68189,1.51204 -1.49273,0 -2.30282,-0.45522 -4.48826,-2.52212 -2.6198,-2.4777 -3.33368,-2.69345 -3.33368,-1.00752 0,1.14868 -1.60097,2.51949 -2.9425,2.51949 -0.60236,0 -1.97571,-0.7955 -3.0519,-1.76777 -1.07619,-0.97227 -2.17318,-1.76777 -2.43776,-1.76777 -0.26458,0 -0.6916,0.83005 -0.94894,1.84456 -0.63405,2.49964 -1.69878,3.09819 -4.01884,2.25925 -1.00538,-0.36355 -1.96108,-0.5279 -2.12376,-0.36521 -0.16269,0.16268 -0.0133,1.5582 0.33201,3.10114 0.76598,3.42276 0.22627,4.40895 -2.29404,4.19181 -0.90914,-0.0783 -1.78209,-0.0133 -1.93988,0.14449 -0.15779,0.15779 0.29995,1.56875 1.01722,3.13545 1.69968,3.71261 1.51937,5.46573 -0.63375,6.1617 -0.88935,0.28747 -1.76965,0.67532 -1.95621,0.86188 -0.18656,0.18656 0.38103,1.42654 1.26131,2.75552 1.97273,2.97828 2.04183,6.07594 0.15639,7.01083 -1.82052,0.90269 -1.82589,1.04165 -0.13134,3.40127 1.98601,2.76546 2.52897,5.84169 1.25579,7.11487 -0.48801,0.48801 -1.30774,0.77733 -1.82164,0.64295 -1.46606,-0.38339 -1.51546,0.37304 -0.1456,2.22977 1.61423,2.18797 2.46783,5.04363 2.02957,6.78979 -0.32015,1.27557 -0.47982,1.34725 -2.33908,1.04994 -1.09751,-0.1755 -1.99548,-0.11557 -1.99548,0.13318 0,0.24875 0.90979,1.27422 2.02176,2.27882 1.58387,1.43093 2.44207,1.82653 3.96233,1.82653 3.39778,0 4.61348,-2.50962 3.41841,-7.05678 -0.62632,-2.38311 -0.6282,-2.95339 -0.0136,-4.1418 0.93873,-1.81531 0.90305,-4.87289 -0.091,-7.80089 -0.61647,-1.81578 -0.67531,-2.64908 -0.25254,-3.57695 0.69244,-1.51974 0.70214,-4.38634 0.0231,-6.83128 -0.42474,-1.52938 -0.36487,-2.12148 0.32024,-3.16709 0.59732,-0.91163 0.82153,-2.26023 0.7701,-4.63202 -0.0614,-2.83051 0.0842,-3.45579 0.94519,-4.05883 0.55977,-0.39208 1.27205,-1.72278 1.58286,-2.95712 0.49778,-1.97686 0.73116,-2.24425 1.95878,-2.24425 0.88055,0 1.66852,-0.41395 2.1402,-1.12434 0.66567,-1.00256 0.89375,-1.05727 2.10567,-0.50508 1.81386,0.82645 4.42857,0.78416 5.62539,-0.091 0.85982,-0.62871 1.22801,-0.5598 3.20762,0.60032 1.65688,0.971 2.9021,1.30052 4.80596,1.2718 2.07046,-0.0312 2.91332,0.23036 4.33879,1.3466 0.97302,0.76196 2.45099,1.6087 3.28437,1.88166 l 1.51522,0.49629 -0.13276,4.75413 c -0.25587,9.16299 -0.66146,17.90773 -0.94033,20.27444 l -0.28142,2.38834 -1.46932,-0.75981 c -1.44305,-0.74623 -1.46931,-0.83464 -1.46931,-4.9455 0,-4.01208 -0.0643,-4.2472 -1.54931,-5.66913 -2.99857,-2.87114 -5.34551,-7.0817 -6.52776,-11.71125 -0.6417,-2.51286 -1.51534,-2.72937 -4.06903,-1.00844 -2.94543,1.98492 -3.66499,3.84807 -3.6266,9.39025 0.041,5.92001 0.91144,8.9451 5.53951,19.25187 4.72288,10.51793 5.85942,13.88863 5.90289,17.50655 0.0446,3.70874 -0.95413,5.38103 -5.39866,9.04001 l -2.90694,2.39315 -4.16238,-2.40646 c -2.28932,-1.32355 -9.67403,-5.67781 -16.41049,-9.67612 l -12.2481,-7.26967 0.0672,-32.43704 c 0.0369,-17.84036 0.2074,-36.81349 0.37881,-42.1625 l 0.31165,-9.72548 24.49619,13.08796 c 13.47291,7.19838 29.49646,15.78358 35.60788,19.07822 l 11.11168,5.99025 0.12918,41.73716 c 0.071,22.95544 -0.0426,42.89135 -0.25254,44.30202 l -0.38172,2.56486 z"
       id="path4573"
       inkscape:connector-curvature="0"
       transform="scale(0.26458333)" />
    <path
       style="fill:none;stroke-width:0.50507629"
       d="m 388.24533,648.10437 c -25.35323,-2.95032 -47.11888,-13.37641 -64.77414,-31.02783 -16.85174,-16.84809 -27.28622,-37.77845 -30.59762,-61.37534 -1.00481,-7.16018 -0.88224,-23.23812 0.2291,-30.05204 2.15814,-13.23221 7.44513,-28.84417 12.40069,-36.61803 l 1.12689,-1.76777 -0.34852,42.47942 c -0.19168,23.36368 -0.18137,47.26864 0.0229,53.12213 l 0.37142,10.64272 10.17028,6.523 c 5.59365,3.58764 23.69369,15.04807 40.22231,25.46761 37.05919,23.36189 36.7352,23.15169 35.55992,23.07061 -0.52921,-0.0365 -2.50167,-0.24552 -4.38325,-0.46448 z"
       id="path4575"
       inkscape:connector-curvature="0"
       transform="scale(0.26458333)" />
    <path
       style="fill:none;stroke-width:0.50507629"
       d="m 308.03583,484.66537 c 2.55239,-4.54138 9.74314,-13.46468 15.4218,-19.13756 13.95695,-13.94275 30.2694,-23.25835 49.4319,-28.22921 6.21628,-1.61254 14.74166,-2.90998 17.86506,-2.71881 l 2.54297,0.15564 -42.62841,25.75889 c -23.44562,14.16739 -42.87869,25.84498 -43.1846,25.95021 -0.30591,0.10522 -0.0578,-0.6954 0.55128,-1.77916 z"
       id="path4577"
       inkscape:connector-curvature="0"
       transform="scale(0.26458333)" />
    <path
       style="fill:none;stroke-width:0.50507629"
       d="m 466.67021,472.30923 c -13.47291,-8.04097 -33.30514,-19.87759 -44.07163,-26.30359 -10.76649,-6.42601 -19.47768,-11.7814 -19.3582,-11.90088 0.41535,-0.41535 11.69666,0.95842 17.72043,2.15789 24.91335,4.96079 48.52529,19.89449 63.86786,40.39411 3.89411,5.20302 7.25812,10.37328 6.71028,10.31324 -0.2049,-0.0225 -11.39583,-6.6198 -24.86874,-14.66077 z"
       id="path4579"
       inkscape:connector-curvature="0"
       transform="scale(0.26458333)" />
    <path
       style="fill:none;stroke-width:0.50507629"
       d="m 406.06106,645.86219 c 2.36123,-1.51399 22.38527,-14.05114 44.49787,-27.86033 l 40.20472,-25.10764 0.32488,-10.8941 c 0.17868,-5.99175 0.47652,-29.72203 0.66186,-52.73395 l 0.33699,-41.83985 1.68202,2.94898 c 2.44774,4.29147 6.54692,14.19723 8.25661,19.95225 4.91806,16.55481 5.75223,35.7574 2.2892,52.69725 -9.35551,45.76366 -47.85804,80.37642 -94.64586,85.08414 -8.51809,0.85708 -8.48308,0.87888 -3.60829,-2.24675 z"
       id="path4581"
       inkscape:connector-curvature="0"
       transform="scale(0.26458333)" />
    <path
       style="fill:none;stroke-width:0.50507629"
       d="m 406.06106,645.86219 c 2.36123,-1.51399 22.38527,-14.05114 44.49787,-27.86033 l 40.20472,-25.10764 0.32488,-10.8941 c 0.17868,-5.99175 0.47652,-29.72203 0.66186,-52.73395 l 0.33699,-41.83985 1.68202,2.94898 c 2.44774,4.29147 6.54692,14.19723 8.25661,19.95225 4.91806,16.55481 5.75223,35.7574 2.2892,52.69725 -9.35551,45.76366 -47.85804,80.37642 -94.64586,85.08414 -8.51809,0.85708 -8.48308,0.87888 -3.60829,-2.24675 z"
       id="path4583"
       inkscape:connector-curvature="0"
       transform="scale(0.26458333)" />
    <path
       style="fill:none;stroke-width:0.50507629"
       d="m 388.24533,648.10437 c -25.35323,-2.95032 -47.11888,-13.37641 -64.77414,-31.02783 -16.85174,-16.84809 -27.28622,-37.77845 -30.59762,-61.37534 -1.00481,-7.16018 -0.88224,-23.23812 0.2291,-30.05204 2.15814,-13.23221 7.44513,-28.84417 12.40069,-36.61803 l 1.12689,-1.76777 -0.34852,42.47942 c -0.19168,23.36368 -0.18137,47.26864 0.0229,53.12213 l 0.37142,10.64272 10.17028,6.523 c 5.59365,3.58764 23.69369,15.04807 40.22231,25.46761 37.05919,23.36189 36.7352,23.15169 35.55992,23.07061 -0.52921,-0.0365 -2.50167,-0.24552 -4.38325,-0.46448 z"
       id="path4585"
       inkscape:connector-curvature="0"
       transform="scale(0.26458333)" />
  </g>
</svg>
